<svg width="400.000000" height="400.000000" viewBox="0 0 400 400" fill="none" xmlns="http://www.w3.org/2000/svg" xmlns:xlink="http://www.w3.org/1999/xlink">
	<desc>
			Created with Pixso.
	</desc>
	<defs>
		<clipPath id="clip10_35">
			<rect id="3-No-verification" width="400.000000" height="400.000000" fill="white" fill-opacity="0"/>
		</clipPath>
	</defs>
	<g clip-path="url(#clip10_35)">
		<path id="3-No" d="M94.18 236.14Q100.01 238.1 108.17 238.1Q117.17 238.1 124.21 235.2Q130.74 232.49 134.7 227.67Q135.02 227.28 135.32 226.87Q136.4 225.45 137.19 223.89Q139.41 219.51 139.41 214.01Q139.41 206.86 136.48 202.19Q135.32 200.33 133.82 198.8Q131.55 196.51 128.5 194.99Q123.45 192.44 116.95 191.8L115.85 191.66L133.79 173.97Q134.44 173.54 134.87 172.7Q135.32 171.87 135.32 170.66L135.32 162.74Q135.32 161.92 134.97 161.31Q134.8 161.02 134.55 160.78Q134.3 160.53 134.01 160.36Q133.4 160 132.58 160L83.73 160Q82.94 160 82.33 160.34Q82.01 160.51 81.75 160.78Q81.53 161 81.38 161.25Q80.99 161.88 80.99 162.74L80.99 171.55Q80.99 172.13 81.21 172.63Q81.39 173.06 81.75 173.43Q81.99 173.66 82.27 173.82Q82.9 174.18 83.73 174.18L114.75 174.18L95.85 191.56Q95.28 192.01 94.77 192.9Q94.29 193.76 94.29 195.07L94.29 200.47Q94.29 201.02 94.48 201.49Q94.68 201.96 95.07 202.35Q95.43 202.71 95.87 202.89Q96.36 203.1 96.95 203.1L108.71 203.1Q114.75 203.1 118.06 205.41Q118.73 205.88 119.26 206.48Q121.36 208.8 121.36 213.01Q121.36 216.52 119.75 218.96Q118.98 220.14 117.84 221.07Q114.32 223.92 108.17 223.92Q105.08 223.92 102.37 223.33Q99.71 222.71 97.73 221.2Q97.71 221.19 97.7 221.18Q97.14 220.73 96.66 220.2Q95.48 218.89 94.85 217.1Q94.18 215.89 93.4 215.4Q92.65 214.89 91.44 214.89L79.33 214.89Q78.82 214.89 78.39 215.08Q78.01 215.25 77.69 215.56Q77.43 215.82 77.27 216.13Q77.02 216.6 77.02 217.2Q77.13 220.61 79.01 224.29Q80.89 227.97 84.62 231.06Q88.35 234.15 94.18 236.14ZM205.62 236.6Q206.27 237 207.17 237L218.27 237Q219.1 237 219.73 236.64Q220.01 236.47 220.25 236.24Q220.52 235.98 220.7 235.66Q221.03 235.05 221.03 234.26L221.03 190.56L250.28 235.01Q250.6 235.36 251.32 236.19Q252.05 237 253.69 237L263.81 237Q264.59 237 265.18 236.66Q265.5 236.48 265.77 236.19Q266.21 235.72 266.4 235.16Q266.55 234.74 266.55 234.26L266.55 162.74Q266.55 161.92 266.19 161.31Q266.02 161.02 265.77 160.78Q265.53 160.53 265.24 160.36Q264.63 160 263.81 160L252.59 160Q252.04 160 251.57 160.2Q251.1 160.39 250.71 160.78Q250.49 161 250.34 161.25Q249.95 161.88 249.95 162.74L249.95 207.86L220.57 161.99Q220.36 161.53 219.58 160.78Q218.83 160 217.16 160L207.17 160Q206.32 160 205.68 160.37Q205.4 160.54 205.16 160.78Q204.94 161 204.79 161.25Q204.41 161.88 204.41 162.74L204.41 234.26Q204.41 235.09 204.77 235.72Q204.93 236 205.16 236.24Q205.37 236.45 205.62 236.6ZM292.51 235.09Q298.68 238.1 307.81 238.1Q316.84 238.1 322.99 235.09Q327.17 233.03 330 229.79Q331.35 228.25 332.39 226.44Q335.64 220.83 335.96 213.34Q336.2 211.13 336.2 208.34Q336.2 205.55 335.96 203.45Q335.64 195.85 332.22 190.29Q331.08 188.43 329.63 186.85Q326.74 183.73 322.64 181.73Q316.49 178.69 307.81 178.69Q299 178.69 292.83 181.73Q288.8 183.7 285.95 186.76Q284.45 188.37 283.27 190.29Q279.88 195.85 279.53 203.45Q279.43 205.55 279.43 208.34Q279.43 211.13 279.53 213.34Q279.88 220.83 283.11 226.44Q284.2 228.32 285.61 229.91Q288.42 233.07 292.51 235.09ZM314.69 223.9Q312.08 225.98 307.81 225.98Q303.58 225.98 300.93 223.93Q300.2 223.37 299.6 222.65Q296.8 219.3 296.59 212.8Q296.48 211.13 296.48 208.39Q296.48 205.66 296.59 203.99Q296.8 197.63 299.6 194.21Q300.27 193.4 301.09 192.78Q303.7 190.8 307.81 190.8Q311.96 190.8 314.53 192.81Q315.31 193.42 315.95 194.21Q318.69 197.63 318.93 203.99Q319.04 205.66 319.04 208.39Q319.04 211.13 318.93 212.8Q318.69 219.3 315.95 222.65Q315.38 223.35 314.69 223.9ZM152.18 210.81Q152.67 211.03 153.26 211.03L187.47 211.03Q188.09 211.03 188.6 210.79Q188.99 210.61 189.33 210.27Q189.72 209.88 189.91 209.41Q190.1 208.94 190.1 208.39L190.1 199.59Q190.1 199 189.89 198.52Q189.69 198.09 189.33 197.73Q188.97 197.36 188.54 197.17Q188.05 196.95 187.47 196.95L153.26 196.95Q152.71 196.95 152.24 197.15Q151.77 197.34 151.38 197.73Q151.05 198.06 150.86 198.46Q150.63 198.97 150.63 199.59L150.63 208.39Q150.63 208.98 150.84 209.47Q151.03 209.91 151.38 210.27Q151.74 210.63 152.18 210.81Z" fill="#000C58" fill-opacity="1.000000" fill-rule="evenodd"/>
		<path id="path" d="M297.69 212.32C257.29 212.32 224.54 244.78 224.54 284.81C224.54 324.85 257.29 357.3 297.69 357.3C338.08 357.3 370.83 324.85 370.83 284.81C370.83 244.78 338.08 212.32 297.69 212.32ZM296.76 331.87C292.95 335.6 286.77 335.6 282.96 331.87L251.91 301.46C248.11 297.72 248.11 291.67 251.91 287.94C255.72 284.21 261.9 284.21 265.71 287.94L289.85 311.59L336.44 265.98C340.24 262.25 346.43 262.25 350.23 265.98C354.04 269.71 354.04 275.76 350.23 279.49L296.76 331.87Z" fill="#07820F" fill-opacity="0.700000" fill-rule="nonzero"/>
		<path id="path" d="M64.76 309.13C55.3 308.14 47.86 300.06 47.86 290.34L47.86 107.73C47.86 97.34 56.35 89.63 66.72 89.63L342.79 89.63C353.17 89.63 362.44 97.34 362.44 107.73L362.44 221.04C367.09 224.64 371.4 228.66 375.31 233.03L375.31 101.27C375.31 87.34 362.86 77 348.95 77L60.29 77C46.38 77 35 87.34 35 101.27L35 296.56C35 309.6 44.97 320.43 57.67 321.76L209.55 321.76C208.43 317.65 207.57 313.43 207 309.13L64.76 309.13Z" fill="#000000" fill-opacity="0.500000" fill-rule="nonzero"/>
	</g>
</svg>
