<svg width="400.000000" height="400.000000" viewBox="0 0 400 400" fill="none" xmlns="http://www.w3.org/2000/svg" xmlns:xlink="http://www.w3.org/1999/xlink">
	<desc>
			Created with Pixso.
	</desc>
	<defs>
		<clipPath id="clip10_17">
			<rect id="DAO" width="400.000000" height="400.000000" fill="white" fill-opacity="0"/>
		</clipPath>
	</defs>
	<g clip-path="url(#clip10_17)">
		<path id="path" d="M371.96 217.62C373.03 217.62 374.05 217.83 375.03 218.24C376.02 218.65 376.88 219.23 377.64 219.98C378.39 220.74 378.97 221.61 379.38 222.6C379.79 223.58 379.99 224.61 380 225.68C380 232.03 379.67 238.36 379.01 244.67C378.35 250.99 377.36 257.25 376.04 263.46C374.72 269.67 373.08 275.79 371.11 281.83C369.15 287.87 366.87 293.78 364.28 299.58C361.69 305.37 358.8 311.01 355.62 316.5C352.44 321.99 348.97 327.3 345.23 332.42C341.49 337.54 337.49 342.45 333.23 347.15C328.97 351.85 324.47 356.31 319.74 360.53C318.95 361.24 318.05 361.77 317.04 362.12C316.03 362.47 315 362.62 313.94 362.56C312.87 362.49 311.86 362.23 310.9 361.77C309.94 361.3 309.11 360.67 308.4 359.87C307.69 359.07 307.16 358.17 306.81 357.16C306.46 356.15 306.32 355.12 306.38 354.05C306.44 352.98 306.7 351.97 307.16 351.01C307.63 350.04 308.26 349.21 309.05 348.5C317.54 340.93 325.17 332.56 331.92 323.4C338.67 314.24 344.4 304.47 349.11 294.11C354.03 283.37 357.73 272.24 360.23 260.7C362.73 249.16 363.96 237.48 363.93 225.68C363.93 221.24 367.55 217.62 371.96 217.62ZM29.03 218.77C30.09 218.77 31.1 218.97 32.08 219.37C33.06 219.77 33.92 220.35 34.67 221.09C35.42 221.83 36.01 222.69 36.42 223.67C36.83 224.64 37.05 225.66 37.06 226.72C37.19 238.11 38.49 249.37 40.96 260.5C43.43 271.62 47.01 282.37 51.72 292.74C56.58 303.5 62.54 313.61 69.59 323.07C76.65 332.53 84.63 341.12 93.55 348.84C94.35 349.54 94.99 350.37 95.47 351.33C95.95 352.28 96.22 353.29 96.3 354.36C96.37 355.43 96.24 356.47 95.9 357.48C95.57 358.5 95.05 359.41 94.35 360.22C93.65 361.02 92.82 361.67 91.87 362.14C90.92 362.62 89.91 362.9 88.84 362.98C87.78 363.05 86.74 362.92 85.73 362.58C84.72 362.24 83.81 361.72 83 361.02C73.22 352.55 64.46 343.12 56.72 332.74C48.98 322.35 42.44 311.26 37.11 299.45C31.95 288.06 28.01 276.26 25.3 264.05C22.58 251.84 21.15 239.48 21 226.98C20.98 225.91 21.18 224.88 21.57 223.89C21.97 222.9 22.54 222.02 23.28 221.25C24.02 220.49 24.88 219.89 25.86 219.47C26.84 219.05 27.86 218.83 28.92 218.81C28.98 218.77 29.03 218.77 29.03 218.77ZM199.74 45C213.38 44.98 226.84 46.51 240.13 49.57C253.43 52.63 266.2 57.15 278.47 63.13C279.43 63.59 280.27 64.22 280.98 65.02C281.69 65.82 282.22 66.72 282.56 67.73C282.91 68.75 283.05 69.78 282.99 70.85C282.92 71.92 282.66 72.93 282.19 73.89C281.73 74.86 281.1 75.7 280.3 76.41C279.5 77.12 278.6 77.65 277.59 78C276.58 78.35 275.54 78.49 274.48 78.43C273.41 78.36 272.4 78.09 271.44 77.62C261.22 72.64 250.6 68.77 239.58 66.01C228.56 63.24 217.37 61.64 206.02 61.21C182.42 60.3 159.31 64.48 137.33 73.59C133.21 75.31 128.55 73.34 126.84 69.21C126.43 68.22 126.22 67.19 126.22 66.12C126.22 65.05 126.43 64.02 126.84 63.03C127.25 62.04 127.83 61.17 128.59 60.42C129.35 59.66 130.22 59.09 131.21 58.68C142.07 54.15 153.26 50.74 164.8 48.44C176.33 46.13 187.98 44.99 199.74 45Z" fill="#434777" fill-opacity="1.000000" fill-rule="nonzero"/>
		<path id="DAO" d="M284.06 247.53Q291.88 250.03 300.51 250.03Q309.24 250.03 317.14 247.46Q322.41 245.75 327.31 242.89Q333.63 239.21 338.6 234.2Q343.29 229.48 346.79 223.58Q349.65 218.75 351.37 213.55Q354 205.64 354 196.85Q354 188.47 351.61 180.84Q349.85 175.21 346.79 169.98Q343.18 163.82 338.29 158.93Q333.41 154.04 327.24 150.43Q321.59 147.12 315.49 145.33Q308.31 143.22 300.51 143.22Q292.81 143.22 285.71 145.28Q279.5 147.07 273.75 150.43Q267.69 153.98 262.87 158.77Q257.89 163.72 254.23 169.98Q251.17 175.21 249.4 180.84Q247.02 188.47 247.02 196.85Q247.02 205.64 249.64 213.55Q251.37 218.75 254.23 223.58Q257.79 229.58 262.57 234.36Q267.48 239.27 273.68 242.89Q278.68 245.8 284.06 247.53ZM60.77 245.08Q64.6 248.5 71.48 248.5L91.34 248.5Q106.79 248.5 118.04 241.62Q118.31 241.45 118.58 241.28Q124.97 237.25 129.63 231.74Q133.29 227.41 135.87 222.18Q138.11 217.66 139.49 212.9Q141.75 205.12 141.75 196.68Q141.75 186.95 138.85 178.18Q137.62 174.47 135.87 170.94Q133.23 165.59 129.46 161.2Q124.86 155.83 118.58 151.9Q118.47 151.83 118.35 151.76Q107.01 144.76 91.34 144.76L71.48 144.76Q64.67 144.76 60.85 148.14Q60.59 148.37 60.34 148.62Q60.09 148.87 59.86 149.12Q56.47 152.91 56.47 159.73L56.47 233.52Q56.47 240.34 59.85 244.15Q60.09 244.42 60.34 244.67Q60.55 244.88 60.77 245.08ZM75.24 162.94L75.24 230.31L91.34 230.31Q101.97 230.31 109.04 226.11Q112.44 224.09 114.99 221.31Q117.76 218.28 119.54 214.35Q122.99 206.76 122.99 196.68Q122.99 186.32 119.61 178.77Q117.86 174.83 115.09 171.82Q112.56 169.06 109.18 167.08Q102.14 162.94 91.34 162.94L75.24 162.94ZM237.75 242.98Q238.42 240.43 237.35 237.42L206.56 152.86Q205.1 149.02 202.32 147Q199.23 144.76 194.53 144.76L194.25 144.76Q189.55 144.76 186.46 147Q183.68 149.02 182.22 152.86L151.39 237.42Q150.33 240.43 151 242.98Q151.3 244.11 151.94 245.15Q152.66 246.28 153.67 247.04Q155.63 248.5 158.67 248.5L159.25 248.5Q162.93 248.5 165.37 246.76Q165.99 246.31 166.53 245.76Q169.2 243.03 171.15 237.73L176.9 221.9L211.88 221.9L217.63 237.73Q219.44 243.03 222.18 245.76Q222.76 246.34 223.42 246.8Q225.89 248.5 229.53 248.5L230.07 248.5Q233.19 248.5 235.15 246.99Q236.12 246.25 236.81 245.15Q237.45 244.11 237.75 242.98ZM205.26 203.69L194.39 173.76L183.52 203.69L205.26 203.69ZM317.11 228.46Q309.79 232.26 300.51 232.26Q291.3 232.26 284.01 228.53Q283.31 228.17 282.63 227.78Q279.25 225.83 276.52 223.2Q272.98 219.8 270.53 215.27Q270.47 215.15 270.4 215.02Q266.19 207.05 266.19 196.85Q266.19 186.59 270.43 178.56Q270.48 178.46 270.53 178.36Q272.92 173.88 276.36 170.47Q279.18 167.69 282.7 165.61Q284.2 164.73 285.78 164.01Q292.46 161 300.51 161Q308.64 161 315.35 164.08Q316.85 164.77 318.28 165.61Q321.8 167.69 324.62 170.47Q328.06 173.88 330.45 178.36Q330.5 178.46 330.56 178.56Q334.79 186.59 334.79 196.85Q334.79 207.05 330.58 215.02Q330.52 215.15 330.45 215.27Q328 219.8 324.47 223.2Q321.73 225.83 318.35 227.78Q317.74 228.14 317.11 228.46Z" fill="#7E4AFF" fill-opacity="1.000000" fill-rule="evenodd"/>
	</g>
</svg>
