<svg t="1711948643844" class="icon" viewBox="0 0 1024 1024" version="1.1" xmlns="http://www.w3.org/2000/svg" p-id="3160" width="200" height="200"><path d="M310.599281 2.037124c-48.675878 11.782422-65.797843 72.96194-30.341762 108.418021 35.699018 35.701549 96.883597 18.253138 108.478756-30.931388 10.952389-46.469204-31.665259-88.73257-78.136994-77.486633M697.723713 12.273356c-73.895727 15.871854-86.938382 118.747885-19.267904 151.974518 70.679349 34.704496 143.714676-38.333361 109.010179-109.01271-16.016097-32.616761-53.764892-50.687696-89.742275-42.961808M406.946393 70.077068c-0.47322 6.179698-0.708565 11.372467-0.518771 11.544547 0.187264 0.169549 43.986697 3.277113 97.32645 6.903447 53.342284 3.628865 99.94561 6.928752 103.561821 7.333646l6.577001 0.736402 0.630116-11.364875c0.349221-6.253085 0.569383-11.448384 0.490934-11.547077-0.080979-0.101224-43.78678-3.150583-97.129064-6.776917-53.342284-3.626334-99.930426-6.926222-103.528923-7.328586l-6.544103-0.733871-0.865461 11.233284m-24.551774 53.210694c-2.044716 2.133286-5.63056 5.180116-7.966294 6.771856-2.338264 1.59174-4.25392 3.320133-4.258981 3.841434-0.005061 0.521301 38.239729 46.188309 84.987298 101.479146 46.747569 55.293368 85.068277 100.651644 85.151787 100.798418 0.38718 0.655423 27.67452-1.381702 27.67452-2.06496-0.002531-0.878114-173.044201-205.709043-178.378682-211.144748l-3.494744-3.56307-3.714904 3.881924M204.24875 219.348917c-75.818975 108.719161-67.41995 95.86377-63.737943 97.544081 1.609455 0.733871 5.726723 3.474499 9.15314 6.091127 3.423887 2.614098 6.602307 4.393102 7.062874 3.95025 6.700999-6.432757 131.823438-189.080543 130.249412-190.128207-1.062847-0.706034-5.271217-3.702252-9.355587-6.655449l-7.422218-5.36991L204.24875 219.348917m92.2096-75.892362c-1.520884 4.98273-48.38233 212.74155-48.045762 213.009792 1.837208 1.470272 22.85881-1.267825 23.413009-3.049359 3.021523-9.742767 46.699488-206.417608 45.973209-207.014827-0.521301-0.42767-4.585427-1.487986-9.034202-2.358509-4.446245-0.870523-8.872245-1.885289-9.83893-2.254755-0.984399-0.377058-2.067491 0.354282-2.467324 1.667658m488.115175 21.160785c-7.5614 7.548747-7.566461 7.558869-5.139626 10.388068 2.902585 3.385928 90.691246 95.208347 103.868022 108.643243l9.216405 9.393546 8.153557-7.857478 8.153558-7.854948-7.758786-7.961233c-4.269104-4.377919-30.162089-31.371711-57.543061-59.98508-27.383503-28.613369-50.14615-52.089642-50.583942-52.173152-0.440322-0.080979-4.205839 3.254337-8.366127 7.407034m-115.701056 71.342363a27893.186123 27893.186123 0 0 1-16.889151 70.904571l-5.380032 22.332447 11.711566-0.883175c6.440349-0.485873 11.820381-0.999583 11.954502-1.138765 0.321385-0.334038 31.045265-129.282727 31.556443-132.435841 0.323915-2.009288-0.865461-2.722914-6.670632-4.010983a1870.55819 1870.55819 0 0 1-10.919491-2.454672l-3.854087-0.885706-11.509118 48.572124m271.767536 48.675878c-32.060031 8.624247-52.279437 43.931024-43.022543 75.130654 20.330751 68.528348 119.962568 54.893535 119.962568-16.41846 0-40.064284-38.118261-69.150873-76.940025-58.712194M72.784656 321.67328c-98.133708 22.734811-83.724535 165.637167 16.699356 165.637168 83.198172 0 115.291101-106.978116 45.995984-153.325853-17.483839-11.693851-43.397069-16.782866-62.69534-12.311315m461.799581 40.006081c-184.753236 12.941432-338.015824 23.564844-340.586902 23.610394l-4.676529 0.078449 0.670606 11.240876c0.366935 6.182229 0.746524 11.347161 0.842687 11.47622 0.096162 0.12906 153.637115-10.413373 341.204365-23.430722 187.56472-13.014819 341.948359-23.671129 343.071941-23.678721 1.723331-0.012653 1.887819-0.974277 1.040072-6.116433-0.551668-3.355561-1.037541-8.558452-1.080562-11.559731-0.060734-4.375388-0.521301-5.428113-2.325611-5.304114l-338.160067 23.683782m66.797425 147.844596a2496448.044565 2496448.044565 0 0 1-318.828898 160.396318l-42.005246 21.117765 4.752446 9.613707c2.614098 5.2864 5.288931 9.633952 5.944353 9.661788 1.252642 0.053142 635.271452-318.168415 636.893559-319.663992 0.931257-0.8604-8.054865-20.687564-9.289792-20.502832-0.354282 0.053142-125.21354 62.773789-277.466422 139.377246m35.645876-109.075974c-4.061595 0.255589-7.384258 0.928726-7.384259 1.495578 0 0.566852-2.862096 0.756646-6.35937 0.420078-3.494743-0.334038-10.684146-0.204978-15.973077 0.291018l-9.618769 0.900889 22.274244 26.616734c28.471656 34.018707 24.412591 31.245181 36.774518 25.116096l10.205865-5.058648-10.094519-11.997522-10.09705-11.994991 3.001279-12.404947c3.722496-15.38345 3.806006-14.378806-1.166602-14.090319-2.297775 0.134121-7.498135 0.450445-11.56226 0.706034m290.640668 26.51045c-0.781952 3.618742-9.788318 46.418593-20.011897 95.109654-10.22611 48.691061-18.921213 89.840968-19.323577 91.445361-0.64277 2.566017-0.136652 3.013931 4.203308 3.74021 2.715322 0.455506 7.665154 1.579087 11.00047 2.497692 5.397746 1.490517 6.134148 1.442436 6.708591-0.422609 0.812319-2.649527 40.537504-191.886966 40.537504-193.114302 0-0.498526-2.168715-1.270356-4.815711-1.710678-2.649527-0.442853-7.531033-1.551251-10.848634-2.464793l-6.030394-1.662597-1.41966 6.582062m-678.430646 2.778586c5.324359 2.310428 5.311706 2.310428 5.311706-0.050612 0-1.379171-1.369049-1.913125-4.81571-1.877697l-4.818242 0.050612 4.322246 1.877697m-65.759883 10.469047c-1.951084 4.81318-3.849026 9.41126-4.218492 10.218518-0.425139 0.933787 13.561426 7.126138 38.272627 16.944823 193.291443 76.798313 230.356979 91.414994 231.832312 91.414994 2.006757 0 26.135922-11.838095 26.118208-12.814902-0.010122-0.647831-281.404019-112.66688-286.131159-113.901807-1.865044-0.488404-3.034176 1.131173-5.873496 8.138374m429.686407 28.757612c-2.120634 9.186038-2.133286 9.165793 4.274165 6.053169 6.759203-3.284704 6.807284-3.451723 2.454671-8.621717-4.428531-5.263625-4.970077-5.056117-6.728836 2.568548M216.782757 494.28222c-1.353865 4.537346-36.691009 161.314922-36.399991 161.499655 3.618742 2.27753 21.588454 4.932118 22.094572 3.261929 1.41713-4.658814 35.372572-155.656525 35.372572-157.293816 0-0.991991-1.58921-2.373692-3.532702-3.069604-1.943492-0.695912-6.533981-2.467324-10.203335-3.932535-6.18729-2.472385-6.721244-2.505283-7.331116-0.465629m-99.682428 6.835121c-3.884454 1.250111-8.720409 2.310428-10.747411 2.353448-2.851974 0.060734-3.550416 0.584566-3.102502 2.325611 0.321385 1.237458 9.15314 36.35444 19.632309 78.038301 10.476638 41.683861 19.386842 76.160604 19.801858 76.61358 1.662597 1.827085 22.016124-4.357674 21.35564-6.490961-0.346691-1.123581-9.2822-36.35444-19.857531-78.293891-10.575331-41.93692-19.404556-76.378235-19.622187-76.535131-0.217631-0.156897-3.573192 0.738932-7.460176 1.989043m585.312565 9.0671c-9.163262 4.620855-9.912317 5.281339-8.234536 7.252668 1.017297 1.191907 25.731028 30.493597 54.921371 65.112053a54347.459139 54347.459139 0 0 0 54.078685 64.084634c1.194438 1.356396 17.283922-11.797606 17.081476-13.96379-0.131591-1.379171-104.738545-125.737372-106.836403-127.005197-0.508648-0.311262-5.463541 1.723331-11.010593 4.519632m-98.784069 49.321178c-6.182229 3.150583-11.238345 5.962068-11.238346 6.245494 0 0.931257 18.113956 7.462707 18.797215 6.776917 1.141296-1.138765 5.400277-18.885785 4.517101-18.817459-0.460567 0.037959-5.893742 2.644465-12.07597 5.795048m-54.592395 27.262035c-6.536511 3.297357-11.883646 6.323942-11.883646 6.726305 0 0.404894 25.002219 10.65631 55.55908 22.785423l121.711205 48.314003 66.154656 26.262452 2.082674-6.048107c1.146357-3.325194 3.067074-7.95111 4.269104-10.276722 2.740628-5.299053 15.041821 0.366935-89.218443-41.089172-49.80199-19.799328-95.461406-38.001854-101.466494-40.448934-35.600325-14.497744-31.804442-13.996687-47.208136-6.225248m-0.005061 150.891425c-13.518406 56.697845-24.754221 104.186877-24.971852 105.53062-0.323915 2.006757 0.865461 2.722914 6.670633 4.010983 3.886985 0.8604 8.798858 1.963737 10.919491 2.452141l3.854087 0.885706 24.405-102.516688c13.424774-56.384052 24.40753-103.308762 24.40753-104.272917 0-1.541129-15.692182-8.927918-19.346353-9.107589-0.756646-0.037959-12.275887 45.707497-25.938536 103.017744m311.83182-99.803896c-62.406853 13.40453-85.222643 91.576952-39.942816 136.856779 64.881769 64.8843 170.20488-11.372467 129.685091-93.89244-16.016097-32.619291-53.764892-50.690227-89.742275-42.964339M162.061303 677.147637c-27.831417 4.59808-50.029743 31.300854-50.082886 60.2432-0.098693 53.997706 65.387887 81.636799 103.885737 43.847514 42.868176-42.078633 5.731784-113.924583-53.802851-104.090714m527.182406 144.458669c-52.917145 32.922962-96.693803 60.314056-97.28596 60.870786-1.080561 1.014766 9.062039 19.285618 10.706922 19.285618 0.954032 0 192.628429-119.021189 194.402371-120.714153 1.083092-1.035011-9.062039-19.303332-10.719574-19.303332-0.490934 0-44.189144 26.938119-97.103759 59.861081M246.841093 771.685378c0 0.673137-2.348387 4.858731-5.220605 9.302445-3.117686 4.823302-4.752446 8.548329-4.059065 9.241711 0.640239 0.640239 41.848349 26.285227 91.574421 56.988862l90.410351 55.824792 1.784065-3.530172c0.981869-1.940962 3.530172-6.298636 5.660927-9.682033 2.130756-3.380867 3.65417-6.361901 3.388459-6.622551-4.797997-4.661345-183.538553-113.26916-183.538553-111.523054m249.834922 97.898363c-91.594666 19.731002-79.268167 153.525769 14.143461 153.525769 76.363051 0 106.398611-98.050198 43.252826-141.19674-15.593489-10.65631-40.413505-15.98573-57.396287-12.329029" p-id="3161"></path></svg>