<svg width="2000.000000" height="600.000000" viewBox="0 0 2000 600" fill="none" xmlns="http://www.w3.org/2000/svg" xmlns:xlink="http://www.w3.org/1999/xlink">
	<desc>
			Delta logo.
	</desc>
	<defs>
		<clipPath id="clip4_2">
			<rect id="rect1" width="2000.000000" height="600.000000" fill="none" fill-opacity="0"/>
		</clipPath>
	</defs>
	<g clip-path="url(#clip4_2)">
		<path id="Delta" d="M1293.93 527.06Q1296.73 529 1300.87 529L1327.8 529Q1330.98 529 1333.67 527.86Q1335.73 526.98 1337.51 525.44Q1339.41 523.79 1340.7 521.76Q1342.3 519.24 1342.98 516.14L1421.87 144.27Q1422.74 139.82 1421.1 136.66Q1420.68 135.84 1420.09 135.11Q1419.37 134.13 1418.44 133.42Q1415.87 131.42 1411.75 131.42L1384.95 131.42Q1382.18 131.42 1379.74 132.32Q1377.25 133.24 1375.11 135.11Q1373.29 136.63 1372.05 138.53Q1370.4 141.06 1369.78 144.27L1290.34 516.14Q1289.43 520.28 1290.82 523.37Q1291.32 524.47 1292.12 525.44Q1292.93 526.37 1293.93 527.06ZM1485.77 516.96Q1503.68 529 1540.6 529L1574.23 529Q1577.4 529 1580.09 527.86Q1582.16 526.98 1583.94 525.44Q1585.9 523.74 1587.18 521.62Q1588.68 519.16 1589.27 516.14L1593.23 495.91Q1594.19 491.03 1592.34 487.7Q1592.06 487.21 1591.73 486.75Q1591.11 485.83 1590.3 485.13Q1587.86 483.06 1583.66 483.06L1546.75 483.06Q1528.29 483.06 1521.59 476.36Q1520.85 475.61 1520.2 474.79Q1515.02 468.23 1515.99 456.81Q1517.08 443.82 1520.5 426.46L1551.26 282.63L1620.71 282.63Q1623.45 282.63 1625.89 281.78Q1628.45 280.9 1630.69 279.07Q1633.15 277.06 1634.59 274.49Q1635.8 272.33 1636.3 269.78L1640.26 250.64Q1641.13 246.18 1639.5 243.02Q1639.08 242.21 1638.49 241.48Q1637.77 240.5 1636.84 239.78Q1634.27 237.78 1630.15 237.78L1560.69 237.78L1580.38 144.27Q1581.25 139.82 1579.62 136.66Q1579.19 135.84 1578.6 135.11Q1577.88 134.13 1576.96 133.42Q1574.39 131.42 1570.26 131.42L1544.01 131.42Q1541.24 131.42 1538.8 132.32Q1536.31 133.24 1534.17 135.11Q1532.36 136.63 1531.12 138.53Q1529.46 141.06 1528.84 144.27L1508.74 237.78L1464.99 237.78Q1462.67 237.78 1460.54 238.42Q1457.52 239.31 1454.87 241.48Q1452.87 243.11 1451.52 245.17Q1449.93 247.6 1449.27 250.64L1445.44 269.78Q1444.55 274.34 1446.2 277.64Q1446.57 278.39 1447.08 279.07Q1447.71 279.89 1448.49 280.52Q1451.1 282.63 1455.42 282.63L1499.17 282.63L1467.86 430.42Q1461.57 460.64 1464.72 482.78Q1466.46 495.07 1472.74 504.24Q1477.79 511.6 1485.77 516.96ZM602.43 526.93Q605.11 529 609.38 529L745.96 529Q803.11 529 838.93 512.45Q854.81 505.12 867.92 494.4Q884.39 480.94 896.49 462.14Q918.37 428.23 930.26 376.69Q936.41 352.08 940.24 333.08Q944.21 313.94 949.27 288.78Q956.51 252.41 950.09 223.84Q944.44 198.73 929.92 180.8Q927.92 178.32 925.75 175.99Q907.84 156.57 879.27 146.87Q850.69 137.02 813.09 137.02L692.23 137.02Q689.46 137.02 687.02 137.92Q684.53 138.85 682.39 140.71Q681.35 141.59 680.49 142.62Q677.88 145.78 677.06 150.42L599.27 516.14Q598.37 520.71 600.02 524Q600.4 524.76 600.9 525.44Q601.59 526.29 602.43 526.93ZM746.51 481.42L661.34 481.42L724.64 184.6L806.94 184.6Q865.18 184.6 884.46 210.71Q903.87 236.69 893.21 290.97Q890.48 307.24 887.88 319.82Q885.42 332.39 882.27 345.11Q879.27 357.69 875.3 374.5Q866.41 413.06 850.96 436.57Q841.9 450.38 829.48 459.75Q820.75 466.35 810.36 470.75Q785.2 481.42 746.51 481.42ZM1034.6 518.33Q1059.62 534.6 1098.18 534.6Q1126.75 534.6 1150.81 527.08Q1174.88 519.43 1193.32 507.67Q1211.93 495.91 1222.44 483.88Q1233.12 471.85 1235.43 463.51Q1236.36 458.79 1234.48 455.92Q1234.12 455.37 1233.66 454.89Q1233.03 454.17 1232.28 453.61Q1229.76 451.75 1225.87 451.75L1198.93 451.75Q1192.24 451.75 1189.09 453.12Q1186.09 454.48 1179.39 461.18Q1175.42 465.69 1165.85 473.35Q1156.42 480.87 1141.52 487.02Q1126.75 493.18 1106.65 493.18Q1085.13 493.18 1071.28 482.86Q1070 481.91 1068.78 480.87Q1064.49 477.16 1061.07 472.76Q1053.19 462.58 1050.05 448.74Q1045.54 428.78 1048.96 405.81Q1049.5 404.72 1049.78 403.08Q1050.05 401.3 1050.05 400.75L1243.23 400.75Q1245.49 400.75 1247.61 400.22Q1250.76 399.43 1253.63 397.47Q1255.51 396.12 1256.81 394.35Q1258.84 391.63 1259.5 387.9L1261.68 378.33Q1270.71 334.17 1262.24 301.09Q1256.14 276.89 1241.27 260.81Q1235.8 254.9 1229.15 250.09Q1204.54 232.18 1162.02 232.18Q1133.14 232.18 1107.73 241.57Q1099.71 244.54 1092.02 248.45Q1082.18 253.47 1073.28 259.79Q1053.32 273.96 1038.02 294.66Q1015.87 324.6 1004.66 364.39Q1002.47 371.63 999.87 383.12Q997.41 394.6 996.32 401.85Q990.71 442.18 1000.15 472.12Q1006.12 490.79 1018.04 504.15Q1025.24 512.21 1034.6 518.33ZM1695.62 523.66Q1715.85 534.6 1746.61 534.6Q1782.57 534.6 1802.94 522.57Q1823.45 510.54 1840.81 492.63L1835.75 516.14Q1834.86 520.71 1836.51 524Q1836.89 524.76 1837.39 525.44Q1838.16 526.39 1839.11 527.09Q1841.73 529 1845.73 529L1871.57 529Q1874.75 529 1877.44 527.86Q1879.5 526.98 1881.28 525.44Q1883.24 523.74 1884.53 521.62Q1886.02 519.16 1886.61 516.14L1943.21 250.64Q1944.01 246.56 1942.56 243.56Q1942.02 242.44 1941.16 241.48Q1940.31 240.42 1939.24 239.67Q1936.56 237.78 1932.55 237.78L1907.39 237.78Q1903.2 237.78 1899.9 239.5Q1898.36 240.3 1897 241.48Q1895.53 242.76 1894.42 244.3Q1892.46 247.05 1891.67 250.64L1887.3 273.6Q1886.11 271.57 1884.81 269.6Q1875.05 254.83 1859 244.21Q1840.81 232.18 1804.86 232.18Q1772.45 232.18 1748.12 243.12Q1731.15 250.74 1717.7 262.43Q1711.86 267.5 1706.69 273.33Q1703.39 277.06 1700.3 280.96Q1687.43 297.23 1678.39 316.53Q1667.18 340.32 1660.48 366.57Q1658.16 375.6 1656.52 383.39Q1654.88 391.18 1653.1 400.21Q1649.27 427.14 1651.73 451.2Q1654.33 475.27 1664.86 494Q1668.09 499.67 1672.18 504.63Q1681.61 516.04 1695.62 523.66ZM1211.38 362.06L1058.39 362.06L1058.93 360.42Q1065.23 335.27 1078.35 315.71Q1089.22 299.41 1104.12 288.73Q1107.21 286.52 1110.48 284.54Q1115.1 281.77 1120.01 279.67Q1135.43 273.06 1153.68 273.06Q1177.75 273.06 1192.79 284.54Q1197.89 288.4 1201.87 293.19Q1209.75 302.64 1213.29 315.71Q1218.63 335.27 1211.93 360.42L1211.38 362.06ZM1804.55 477.71Q1784.89 489.21 1758.51 489.21Q1732.12 489.21 1719.82 476.63Q1717.56 474.32 1715.65 471.75Q1707.19 460.31 1705.73 443.68Q1704.09 423.18 1707.51 399.66Q1708.61 391.18 1710.25 383.39Q1712.02 375.6 1714.21 367.12Q1721.46 343.6 1733.49 323.23Q1742.65 307.62 1755.68 296.61Q1759.78 293.15 1764.25 290.15Q1765.93 289.03 1767.66 288.01Q1785.45 277.57 1809.37 277.57Q1836.85 277.57 1850.52 289.87Q1855.75 294.53 1859.5 300.17Q1865.67 309.42 1867.88 321.32Q1868.97 326.91 1869.34 332.55Q1870.25 346.08 1867.06 359.87Q1865.42 368.9 1862.82 381.48Q1860.36 394.05 1858.18 402.94Q1853.12 423.72 1840.13 443.68Q1835.36 451.05 1829.53 457.45Q1819.66 468.28 1806.77 476.36Q1805.67 477.05 1804.55 477.71Z" fill="#4D4D4D" fill-opacity="1.000000" fill-rule="evenodd"/>
		<circle id="circle" cx="301.000000" cy="300.000000" r="266.000000" stroke="#FF9900" stroke-opacity="1.000000" stroke-width="48.000000"/>
		<path id="path" d="M511 421.78C510.95 266.31 426.53 130.62 301 58C175.46 130.62 91.04 266.35 91 421.78C152.78 457.51 224.5 478 301 478C377.5 478 449.21 457.55 511 421.78Z" fill="#FF9900" fill-opacity="1.000000" fill-rule="nonzero"/>
		<circle id="circle1" cx="307.000000" cy="328.000000" r="30.000000" fill="#EFEFEF" fill-opacity="1.000000"/>
		<path id="δ" d="M282.5 361.21Q290.99 365.5 301.94 365.5Q312.3 365.5 320.76 361.54Q324.35 359.85 327.34 357.42Q331.41 354.1 334.35 349.38Q339.44 341.18 339.44 328.58Q339.44 325.37 338.95 322.22Q338.37 318.5 337.1 314.89Q334.79 308.18 328.27 301.67Q321.75 295.15 309.16 288.56Q299.08 283.28 295.72 279.77Q293.18 277.12 292.55 274.08Q292.35 273.08 292.35 272.04Q292.35 269.81 293.63 267.43Q294.91 265.01 298.13 263.36Q301.35 261.71 307.03 261.71Q310.39 261.71 313.59 262.44Q316.38 263.08 319.04 264.28Q320.25 264.81 321.42 265.41Q325.8 267.65 329.7 270.83L336.14 259.15Q332.41 255.71 324.98 252.48Q317.54 249.26 306.88 249.26Q296.85 249.26 290.15 252.56Q283.48 255.85 280.11 261.02Q278.16 264.01 277.34 267.3Q276.75 269.67 276.75 272.19Q276.75 280.34 280.76 285.14Q280.96 285.39 281.18 285.63Q285.61 290.5 290.99 293.65Q278.98 298.44 271.62 307.09Q271.51 307.21 271.41 307.34Q264.29 315.91 264.29 330.38Q264.29 340.96 268.97 348.73Q269.07 348.89 269.16 349.05Q271.2 352.35 273.87 355.01Q277.57 358.72 282.5 361.21ZM314.77 349.03Q309.78 352.61 302.23 352.61Q295.58 352.61 290.72 349.66Q288.35 348.22 286.41 346.09Q285.59 345.18 284.89 344.2Q280.48 338.04 280.48 328.73Q280.48 318.43 285.45 311.94Q285.98 311.25 286.56 310.6Q292.64 303.86 303.29 300.24Q312.6 304.74 318.13 311.59Q319.18 312.88 320.04 314.3Q323.69 320.33 323.69 328.58Q323.69 337.77 319.45 344.1Q318.83 345.01 318.13 345.87Q316.63 347.7 314.77 349.03Z" fill="#23870A" fill-opacity="1.000000" fill-rule="evenodd"/>
	</g>
</svg>
