<svg t="1711949011753" class="icon" viewBox="0 0 1096 1024" version="1.1" xmlns="http://www.w3.org/2000/svg" p-id="35047" width="200" height="200"><path d="M1085.625726 13.693607A39.671401 39.671401 0 0 0 1055.503357 0.000402h-68.479436c-259.540552 0-454.249612 2.735959-598.97378 37.673079a479.12806 479.12806 0 0 0-205.43831 95.865846A370.722403 370.722403 0 0 0 65.515481 323.219052a466.574838 466.574838 0 0 0-7.859175 177.193559l0.013411 0.174351 0.08047 0.496228 0.013411 0.067057a465.90426 465.90426 0 0 0 15.061185 66.78958 332.378746 332.378746 0 0 0 45.652958 92.915303C39.953044 786.829934 0 846.189508 0 983.148382a39.698224 39.698224 0 0 0 39.711636 39.711635l0.697401 1.139983a39.725047 39.725047 0 0 0 39.711636-39.939632c0-121.13323 35.822283-208.335207 82.346992-275.929481 72.409024 76.700724 169.522146 111.074558 273.059406 120.033482 15.517177 1.823972 30.578362 1.823972 45.652958 1.823972a462.511134 462.511134 0 0 0 226.440816-57.978183 608.241169 608.241169 0 0 0 226.910221-236.030084c72.127382-125.089641 126.444208-289.676332 161.153332-490.313302a39.725047 39.725047 0 0 0-10.058672-31.973165zM236.5129 642.092355c-27.21206 30.699066-88.221256-10.487842-63.423278-37.68649 42.930411-47.074583 290.038444-311.604236 615.925994-370.105471-336.53633 136.476057-515.44657 365.988121-552.502716 407.791961z" fill="#4BD863" p-id="35048"></path></svg>