<svg t="1711957132667" class="icon" viewBox="0 0 1024 1024" version="1.1" xmlns="http://www.w3.org/2000/svg" p-id="52912" width="200" height="200"><path d="M272.2 287.5c0 85.7 45.7 165 120 207.9 74.3 42.9 165.7 42.9 240 0 74.3-42.9 120-122.1 120-207.9 0-85.7-45.7-165-120-207.9-74.3-42.9-165.7-42.9-240 0-74.3 42.9-120 122.1-120 207.9z m0 0" fill="#E9EAEB" p-id="52913"></path><path d="M672.2 863.4h-16v-16c0-26.5-21.5-48-48-48h-192c-12.8-0.1-25.1 4.9-34.2 14-9.1 9-14.2 21.3-14.2 34.1v16h-15.6c-12.8 0-25 5.1-34 14.1-9 9.1-14 21.3-14 34.1v48h416.1v-48c0.1-12.8-5-25.1-14-34.1-9-9.2-21.3-14.3-34.1-14.2z m0 0" fill="#A3D4FF" p-id="52914"></path><path d="M672.2 863.4h-32v-16c0-17.6-14.3-31.9-32-32h-192c-17.6 0-31.9 14.3-32 32v16h-32v-16c0-35.3 28.7-64 64-64h192c35.3 0 64 28.7 64 64v16z m0 0" fill="#2A5082" p-id="52915"></path><path d="M736.2 975.4H288.3v-63.8c0-35.3 28.7-64 64-64h143.9v32H352.3c-8.5 0-16.6 3.4-22.7 9.4-6 6-9.4 14.2-9.4 22.7v32H704.1v-32c0-17.6-14.3-31.9-32-32h-63.9v-32.3h64c35.3 0 64 28.7 64 64v64z m0 0" fill="#2A5082" p-id="52916"></path><path d="M528.3 847.4h32v32h-32v-32z m0-448h32v383.9h-32V399.4z m-64.1 0h32v383.9h-32V399.4z m256 256h-32v-35.2l113.1-274.9 29.6 12.2-110.8 269v28.9z m272 0h-32V627L833.7 358.3l29-13.6L992.2 620v35.4z m0 0" fill="#2A5082" p-id="52917"></path><path d="M672.2 655.4v32c30.4 57.7 95.7 96 167.9 96s137.7-38.3 167.9-96v-32H672.2z m0 0" fill="#E9EAEB" p-id="52918"></path><path d="M840.2 799.4c-77.2 0-148.7-41-182.5-104.5l-1.8-3.5v-52h368v52l-1.8 3.5c-33.2 63.4-104.6 104.5-181.9 104.5z m-152-116c28.7 51.1 87.6 84.1 152 84.1s123.3-32.8 152-84.1v-12h-304v12z m-623.9-28h-32v-35.2l113.2-274.9 29.6 12.2-110.8 269v28.9z m271.9 0h-32V627L177.8 358.3l29-13.6L336.3 620v35.4z m0 0" fill="#2A5082" p-id="52919"></path><path d="M16.3 655.4v32c30.4 57.7 95.7 96 167.9 96s137.7-38.3 167.9-96v-32H16.3z m0 0" fill="#E9EAEB" p-id="52920"></path><path d="M184.3 799.4c-77.2 0-148.7-41-182.5-104.5l-1.8-3.5v-52h368v52l-1.8 3.5c-33.2 63.4-104.7 104.5-181.9 104.5zM32.1 683.4c28.7 51.1 87.6 84.1 152 84.1s123.3-32.8 152-84.1v-12H32.1v12z m547.5-536.7h-32.1c0-12.6-6.7-24.2-17.6-30.5-10.9-6.3-24.3-6.3-35.2 0-10.9 6.3-17.6 17.9-17.6 30.5h-32c0-37.1 30.1-67.3 67.3-67.3 37.1 0 67.2 30.1 67.2 67.3zM224.3 943.4h80v32h-80v-32z m-64.1 0h32v32h-32v-32z m560 0h48v32h-48v-32z m80 0h32v32h-32v-32z m64 0h32v32h-32v-32z m0 0" fill="#2A5082" p-id="52921"></path><path d="M880.2 255.5c-32 0-80.3 30.1-160-16-91.8-52.8-153.3-69.1-208-13.1-54.7-56-116.2-39.7-208 13.1-80.3 46-128 16-160 16-17.6-0.7-34.2 8.3-43.1 23.4-9 15.1-9 34 0 49.1 9 15.1 25.6 24.1 43.1 23.4 29.2 0 45.5-2 96-16 31.8-8.8 94.9-32 144-32s80.3 48 128 48 78.7-48 128-48 112.1 23.2 144 32c50.5 13.9 66.9 16 96 16 17.6 0.7 34.1-8.3 43.1-23.4 9-15.1 9-34 0-49.1-8.9-15.1-25.5-24.1-43.1-23.4z m0 0" fill="#FFFFFF" p-id="52922"></path><path d="M880.2 367.5c-30.7 0-48.5-2.3-100.2-16.6-6.6-1.8-14.6-4.2-23.4-7.3-33.5-10.3-79.5-24.5-116.4-24.5-20.4 0-38 10.7-56.6 21.9-21.2 12.8-43.1 26.1-71.4 26.1s-50.2-12.9-71.4-25.7c-18.6-11.3-36.5-21.9-56.6-21.9-36.9 0-82.8 14.2-116.3 24.5-8.8 2.7-16.8 5.2-23.4 7.3-51.7 14.6-69.6 16.6-100.2 16.6-23.4 0.8-45.3-11.2-57.2-31.3-11.9-20.1-11.9-45.1 0-65.3 11.9-20.1 33.9-32.1 57.2-31.3 10 0.4 20 1.8 29.8 4.2 29.9 6.1 67 13.7 122.2-18 88.2-51.1 156.1-72 216-21.1 59.9-51.1 127.7-29.6 216 21.1 55.2 31.8 92.3 24.1 122.2 18 9.8-2.4 19.7-3.8 29.8-4.2 23.4-0.8 45.3 11.2 57.2 31.3 11.9 20.1 11.9 45.1 0 65.3-11.9 20.1-33.9 32.1-57.2 31.3v-0.4z m-240-80.3c41.7 0 90.3 14.6 125.8 25.8 8.5 2.6 16.1 5 22.5 6.7 48.5 13.4 63.9 15.4 91.8 15.4 17.7 0 32-14.3 32-32s-14.3-32-32-32c-7.9 0.5-15.7 1.6-23.4 3.5-31.4 6.4-78.9 16.1-144.6-21.9-97.7-56.2-145.3-60.1-188.5-15.8l-11.5 11.8-11.6-11.7c-43.3-44.4-90.9-40.4-188.5 15.8-65.7 37.7-113.1 28-144.6 21.9-7.7-1.9-15.5-3-23.4-3.5-17.7 0-32 14.3-32 32s14.3 32 32 32c27.8 0 43.3-2 91.8-15.4 6.3-1.8 14-4.1 22.5-6.7 35.5-11 84.1-25.8 125.8-25.8 29.2 0 52.6 14.1 73 26.6 18.2 11 35.4 21.5 54.8 21.5s36.5-10.4 54.8-21.5c20.8-12.2 44.2-26.3 73.4-26.3v-0.4z m0 0" fill="#2A5082" p-id="52923"></path></svg>