<svg width="400.000000" height="203.000000" viewBox="0 0 400 203" fill="none" xmlns="http://www.w3.org/2000/svg" xmlns:xlink="http://www.w3.org/1999/xlink">
	<defs>
		<clipPath id="clip10_26">
			<rect id="ICPicon" width="400.000000" height="203.000000" fill="white" fill-opacity="0"/>
		</clipPath>
		<linearGradient id="paint_linear_10_32_0" x1="375.996216" y1="404.244049" x2="43.624161" y2="53.023804" gradientUnits="userSpaceOnUse">
			<stop offset="0.220000" stop-color="#EC1E79"/>
			<stop offset="0.890000" stop-color="#522784"/>
		</linearGradient>
		<linearGradient id="paint_linear_10_33_0" x1="640.458740" y1="-18.814758" x2="972.830200" y2="332.406311" gradientUnits="userSpaceOnUse">
			<stop offset="0.210000" stop-color="#F05A24"/>
			<stop offset="0.680000" stop-color="#FAAF3B"/>
		</linearGradient>
	</defs>
	<g clip-path="url(#clip10_26)">
		<mask id="mask10_29" mask-type="alpha" maskUnits="userSpaceOnUse" x="3.000000" y="6.939995" width="393.621277" height="189.016357">
			<rect id="rect" x="3.000000" y="6.939995" width="393.621277" height="189.016373" fill="#000000" fill-opacity="1.000000"/>
		</mask>
		<g mask="url(#mask10_29)">
			<path id="path" d="M325.12 163.98C298.34 163.98 270.07 146.11 256.19 133.16C241.01 118.98 199.32 72.83 199.13 72.62C171.79 41.49 135.03 6.94 98.35 6.94C54.18 6.94 15.65 38.15 5.63 79.51C6.39 76.78 20.44 38.9 73.15 38.9C99.93 38.9 128.21 56.76 142.08 69.72C157.26 83.9 198.96 130.05 199.14 130.26C226.48 161.39 263.25 195.94 299.93 195.94C344.1 195.94 382.62 164.72 392.65 123.37C391.89 126.1 377.83 163.98 325.12 163.98Z" fill="#29AAE1" fill-opacity="1.000000" fill-rule="nonzero"/>
			<path id="path" d="M199.13 130.27C199.03 130.15 187.03 116.87 173.56 102.38C166.28 111.19 155.8 123.2 143.75 133.97C121.28 154.06 106.69 158.28 98.34 158.28C66.84 158.28 41.14 132.78 41.14 101.44C41.14 70.11 66.8 44.81 98.34 44.61C99.48 44.61 100.87 44.73 102.54 45.03C93.06 41.32 83 38.9 73.14 38.9C20.44 38.9 6.4 76.76 5.62 79.51C3.92 86.56 3 93.89 3 101.44C3 153.56 45.13 195.95 97.66 195.95C119.56 195.95 144.09 184.5 169.35 161.9C181.29 151.22 191.35 139.45 199.13 130.27Z" fill="url(#paint_linear_10_32_0)" fill-opacity="1.000000" fill-rule="nonzero"/>
			<path id="path" d="M199.13 72.62C199.22 72.74 211.23 86.02 224.7 100.51C231.97 91.69 242.46 79.69 254.51 68.91C276.97 48.83 291.57 44.61 299.92 44.61C331.42 44.61 357.12 70.11 357.12 101.44C357.12 132.6 331.45 158.08 299.92 158.28C298.78 158.28 297.39 158.16 295.72 157.85C305.19 161.57 315.26 163.99 325.12 163.99C377.82 163.99 391.87 126.12 392.64 123.38C394.35 116.33 395.26 108.99 395.26 101.44C395.26 49.33 352.45 6.94 299.92 6.94C278.02 6.94 254.17 18.39 228.9 40.99C216.96 51.67 206.91 63.44 199.13 72.62Z" fill="url(#paint_linear_10_33_0)" fill-opacity="1.000000" fill-rule="nonzero"/>
		</g>
	</g>
</svg>
