<svg width="420.000000" height="420.000000" viewBox="0 0 420 420" fill="none" xmlns="http://www.w3.org/2000/svg" xmlns:xlink="http://www.w3.org/1999/xlink">
	<rect width="420.000000" height="420.000000" fill="none" fill-opacity="1.000000"/>
	<g clip-path="url(#clip3_6)">
		<path id="path" d="M380.28 119.67L94.56 52.48C89.9 51.37 84.02 52.18 80.55 54.75C76.91 57.43 73.52 61.64 73.52 66.59L73.52 118.31L53.75 118.31C39.44 118.31 26 130.62 26 144.12L26 339.98C26 353.48 39.44 363 53.75 363L369.66 363C383.97 363 394 353.48 394 339.98L394 155.29L394 144.12L394 137.72C394 129.62 388.91 121.69 380.28 119.67ZM94.45 68.82L305.53 118.31L94.44 118.31L94.45 68.82ZM376.75 338.19C376.75 342.11 373.28 346.74 367.54 346.74L55.1 346.74C49.37 346.74 43.24 342.11 43.24 338.19L43.24 140.19C43.24 136.27 49.37 134.57 55.1 134.57L367.54 134.57C373.28 134.57 376.75 136.27 376.75 140.19L376.75 338.19Z" fill="#4d3900" fill-opacity="1.000000" fill-rule="nonzero"/>
		<path id="path" d="M220.03 231.69C219.57 229.2 220.02 226.54 221.64 224.23C236.85 202.55 267.13 197.14 289.23 212.15L322.42 234.93C333.06 242.24 340.08 253.13 342.39 265.79C344.7 278.45 341.99 291.08 334.6 301.61C319.39 323.29 289.11 328.7 267.02 313.68L241.82 297.02C237.18 293.98 236.04 287.74 239.1 283.14C242.17 278.54 248.48 277.42 253.13 280.45L278.35 297.3C291.33 306.21 309 303.05 318 290.21C322.29 284.11 323.9 276.64 322.53 269.15C321.17 261.67 317.04 255.41 310.84 250.99L277.71 228.57C264.94 219.8 247.1 222.99 238.24 235.62C235.14 240.04 228.83 241.17 224.18 238.13C222.02 236.49 220.48 234.19 220.03 231.69Z" fill="#053C89" fill-opacity="1.000000" fill-rule="nonzero"/>
		<path id="path" d="M147.59 215.18C145.28 202.53 148.18 189.86 155.56 179.34C162.94 168.81 173.96 161.87 186.76 159.59C199.52 157.12 212.51 159.96 223.15 167.26L248.37 184.1C253.02 187.14 254.16 193.38 251.09 197.98C248.02 202.58 241.72 203.7 237.07 200.67L211.63 183.68C205.25 179.29 197.7 177.7 190.31 179.02C182.74 180.37 176.41 184.45 171.95 190.58C167.66 196.69 166.05 204.15 167.42 211.64C168.79 219.13 172.91 225.39 179.11 229.8L212.31 252.59C218.48 256.82 226.03 258.42 233.6 257.07C241.17 255.71 247.49 251.64 251.96 245.5C255.06 241.08 261.37 239.95 266.01 242.99C270.48 246.06 271.62 252.3 268.55 256.89C261.17 267.42 250.15 274.36 237.36 276.64C224.56 278.93 211.61 276.28 201.15 268.94L167.77 246.19C157.13 238.88 149.9 227.84 147.59 215.18Z" fill="#053C89" fill-opacity="1.000000" fill-rule="nonzero"/>
		<path id="path" d="M94 220C80.76 220 70 229.87 70 242C70 254.12 80.76 264 94 264C107.23 264 118 254.12 118 242C118 229.87 107.23 220 94 220ZM94 252C87.98 252 83.09 247.51 83.09 242C83.09 236.48 87.98 232 94 232C100.01 232 104.9 236.48 104.9 242C104.9 247.51 100.01 252 94 252Z" fill="#4d3900" fill-opacity="1.000000" fill-rule="nonzero"/>
	</g>
</svg>
