<svg width="200.000000" height="100.000000" viewBox="0 0 200 100" fill="none" xmlns="http://www.w3.org/2000/svg" xmlns:xlink="http://www.w3.org/1999/xlink">
	<defs>
		<clipPath id="clip2_13">
			<rect id="No助记词" width="200.000000" height="100.000000" fill="white" fill-opacity="0"/>
		</clipPath>
	</defs>
	<rect id="No助记词" width="200.000000" height="100.000000" fill="#FFFFFF" fill-opacity="0"/>
	<g clip-path="url(#clip2_13)">
		<rect  x="15.000000" y="3.000000" rx="3.000000" width="167.000000" height="66.000000" fill="#FFFFFF" fill-opacity="0.500000"/>
		<rect  x="14.500000" y="2.500000" rx="3.000000" width="168.000000" height="67.000000" stroke="#CECDCD" stroke-opacity="1.000000" stroke-width="1.000000"/>
		<path id="mnem. words" d="M150.81 32.72Q149.58 34.51 149.58 38.15L149.58 39.27Q149.61 42.71 150.83 44.49Q151.34 45.23 152.04 45.66Q153.02 46.27 154.38 46.27Q155.04 46.27 155.62 46.05Q156.67 45.64 157.44 44.49L157.62 46L161.14 46L161.14 25L157.24 25L157.24 32.41Q156.55 31.51 155.64 31.15Q155.06 30.93 154.39 30.93Q153.01 30.93 152.01 31.55Q151.32 31.99 150.81 32.72ZM29.86 32.57L29.75 31.2L26.13 31.2L26.13 46L30 46L30 35.25Q30.4 34.5 31.01 34.27Q31.27 34.17 31.58 34.17Q32.25 34.17 32.61 34.5Q32.72 34.61 32.8 34.74Q33.14 35.3 33.14 36.58L33.14 46L37.01 46L37.01 35.96L36.98 35.5Q37.36 34.55 38.02 34.28Q38.28 34.17 38.59 34.17Q39.25 34.17 39.61 34.49Q39.72 34.59 39.8 34.72Q40.15 35.26 40.15 36.55L40.15 46L44.02 46L44.02 36.3Q43.96 32.76 42.25 31.55Q41.37 30.93 40.04 30.93Q38.88 30.93 37.99 31.41Q37.07 31.91 36.42 32.92Q35.97 31.94 35.2 31.44Q34.41 30.93 33.29 30.93Q32.17 30.93 31.28 31.38Q30.48 31.79 29.86 32.57ZM50.53 32.66L50.42 31.2L46.78 31.2L46.78 46L50.67 46L50.67 35.25Q51.05 34.55 51.62 34.3Q51.93 34.17 52.31 34.17Q53.09 34.17 53.48 34.56Q53.56 34.64 53.63 34.74Q54 35.3 54 36.56L54 46L57.89 46L57.89 36.27Q57.81 32.71 56.1 31.53Q55.24 30.93 53.96 30.93Q52.97 30.93 52.16 31.31Q51.23 31.74 50.53 32.66ZM62.7 45.13Q64.25 46.27 66.64 46.27Q68.01 46.27 69.22 45.81Q69.4 45.74 69.58 45.66Q70.93 45.05 71.64 44.07L70.12 41.73Q69.57 42.29 68.9 42.62Q68 43.06 66.88 43.06Q65.7 43.06 65.06 42.47Q64.98 42.39 64.9 42.3Q64.26 41.54 64.17 39.9L71.87 39.9L71.87 38Q71.84 34.5 70.44 32.71Q70.09 32.28 69.67 31.95Q68.35 30.93 66.24 30.93Q64.22 30.93 62.87 31.87Q62.3 32.27 61.85 32.83Q60.32 34.73 60.32 38.23L60.32 39.41Q60.32 42.67 61.95 44.45Q61.97 44.47 61.99 44.49Q62.32 44.84 62.7 45.13ZM77.81 32.57L77.7 31.2L74.07 31.2L74.07 46L77.94 46L77.94 35.25Q78.35 34.5 78.95 34.27Q79.22 34.17 79.53 34.17Q80.2 34.17 80.56 34.5Q80.67 34.61 80.75 34.74Q81.09 35.3 81.09 36.58L81.09 46L84.96 46L84.96 35.96L84.93 35.5Q85.31 34.55 85.97 34.28Q86.23 34.17 86.54 34.17Q87.2 34.17 87.56 34.49Q87.66 34.59 87.75 34.72Q88.1 35.26 88.1 36.55L88.1 46L91.97 46L91.97 36.3Q91.91 32.76 90.2 31.55Q89.31 30.93 87.99 30.93Q86.83 30.93 85.93 31.41Q85.01 31.91 84.37 32.92Q83.92 31.94 83.15 31.44Q82.36 30.93 81.24 30.93Q80.12 30.93 79.23 31.38Q78.42 31.79 77.81 32.57ZM128.28 32.84Q126.7 34.76 126.7 38.12L126.7 39.06Q126.7 42.45 128.28 44.36Q128.77 44.96 129.39 45.37Q130.75 46.27 132.7 46.27Q134.64 46.27 135.99 45.38Q136.61 44.97 137.1 44.37Q138.67 42.47 138.67 39.09L138.67 38.15Q138.67 34.76 137.09 32.84Q136.57 32.22 135.93 31.8Q134.58 30.93 132.67 30.93Q130.81 30.93 129.49 31.77Q128.82 32.2 128.28 32.84ZM147.1 34.83L148.38 34.93L148.42 31.11Q148.01 30.93 147.35 30.93Q146.9 30.93 146.5 31.08Q145.48 31.46 144.83 32.8L144.72 31.2L141.07 31.2L141.07 46L144.95 46L144.95 36.22Q145.2 35.58 145.67 35.24Q146.23 34.83 147.1 34.83ZM170.52 41.87Q170.53 41.95 170.53 42.03Q170.53 42.66 170.21 43.01Q169.83 43.44 168.97 43.44Q167.97 43.44 167.52 42.94L167.51 42.93Q167.07 42.43 167.04 41.41L163.36 41.41Q163.36 42 163.5 42.54Q163.68 43.23 164.07 43.86Q164.31 44.25 164.62 44.58Q165.2 45.22 166.02 45.63Q167.26 46.27 168.89 46.27Q171.24 46.27 172.72 45.13Q172.76 45.1 172.8 45.07Q173.47 44.52 173.84 43.81Q174.29 42.96 174.29 41.88Q174.29 40.51 173.66 39.55Q173.51 39.31 173.31 39.1Q172.33 38.02 169.97 37.15Q168.34 36.45 167.9 36.08Q167.59 35.81 167.5 35.47Q167.47 35.35 167.47 35.21Q167.47 34.64 167.74 34.28Q167.8 34.21 167.86 34.14Q167.98 34.02 168.13 33.94Q168.45 33.76 168.87 33.76Q169.49 33.76 169.85 34.06Q170.38 34.5 170.38 35.56L174.25 35.56Q174.25 34.22 173.66 33.22Q173.32 32.65 172.78 32.19Q172.69 32.11 172.59 32.03Q171.17 30.93 168.89 30.93Q166.89 30.93 165.57 31.88Q165.36 32.02 165.18 32.19Q164.54 32.77 164.19 33.49Q163.77 34.35 163.77 35.4Q163.77 36.54 164.26 37.41Q164.44 37.71 164.67 37.98Q165.57 39.02 167.96 39.99Q169.59 40.7 170.06 41.12Q170.45 41.47 170.52 41.87ZM121.53 31.2L120.2 39.5L118.23 31.2L115.49 31.2L113.52 39.51L112.2 31.2L108.49 31.2L111.55 46L114.77 46L116.87 37.44L118.96 46L122.17 46L125.23 31.2L121.53 31.2ZM68.07 37.19L64.2 37.19Q64.28 35.59 64.74 34.87Q64.89 34.63 65.1 34.47Q65.53 34.14 66.21 34.14Q66.95 34.14 67.37 34.51Q67.52 34.64 67.63 34.83Q68.04 35.51 68.07 36.83L68.07 37.19ZM131.86 42.86Q130.58 42.17 130.58 39.09L130.58 38.12Q130.58 36.1 131.13 35.12Q131.48 34.5 132 34.28Q132.31 34.14 132.67 34.14Q133.09 34.14 133.43 34.3Q133.92 34.54 134.26 35.12Q134.82 36.1 134.82 38.12L134.8 39.75Q134.69 42.23 133.56 42.85Q133.18 43.06 132.7 43.06Q132.23 43.06 131.86 42.86ZM153.93 42.17Q153.47 41.31 153.47 39.12L153.47 38.09Q153.47 35.89 153.96 35.03Q154.17 34.66 154.49 34.45Q154.91 34.17 155.52 34.17Q156.01 34.17 156.4 34.37Q156.91 34.64 157.24 35.26L157.24 42.02Q156.93 42.56 156.46 42.81Q156.04 43.04 155.5 43.04Q154.83 43.04 154.39 42.72Q154.11 42.51 153.93 42.17ZM95.38 43Q95.14 43.45 95.14 44.03Q95.14 44.62 95.4 45.08Q95.54 45.34 95.78 45.56Q95.96 45.73 96.17 45.85Q96.69 46.15 97.38 46.15Q98.04 46.15 98.54 45.88Q98.78 45.75 98.99 45.56Q99.22 45.35 99.37 45.1Q99.64 44.64 99.64 44.03Q99.64 43.45 99.4 43Q99.24 42.72 99 42.49Q98.8 42.3 98.57 42.18Q98.05 41.89 97.38 41.89Q96.64 41.89 96.1 42.23Q95.92 42.34 95.76 42.5Q95.53 42.73 95.38 43Z" fill="#3C3C3C" fill-opacity="1.000000" fill-rule="evenodd"/>
		<path xmlns="http://www.w3.org/2000/svg" id="path" d="M61.38 10.18L53.77 13.87C67.33 19.7 79.97 26.41 91.05 33.13C74.05 43.02 60.73 52.75 53.72 56.66L68.2 63.67C73.34 57.54 84.54 48.21 99.51 38.46C114.5 48.27 125.72 57.63 130.89 63.81C130.89 63.81 145.01 55.14 146.27 56.48C140.82 52.94 127.58 42.65 109.73 32.11C119.96 26.04 131.43 20.04 143.68 14.77L140.34 11.17C126.45 15.16 113.25 21.08 101.37 27.39C89.38 20.84 75.82 14.57 61.38 10.18Z" fill="#F54F31" fill-opacity="0.400000" fill-rule="nonzero"/>
	</g>
</svg>
