<svg width="200.000000" height="100.000000" viewBox="0 0 200 100" fill="none" xmlns="http://www.w3.org/2000/svg" xmlns:xlink="http://www.w3.org/1999/xlink">
	<desc>
			Created with Pixso.
	</desc>
	<defs>
		<clipPath id="clip2_19">
			<rect id="No密码" width="200.000000" height="100.000000" fill="white" fill-opacity="0"/>
		</clipPath>
	</defs>
	<rect id="No密码" width="200.000000" height="100.000000" fill="#FFFFFF" fill-opacity="0"/>
	<g clip-path="url(#clip2_19)">
		<rect  x="15.000000" y="3.000000" rx="3.000000" width="167.000000" height="66.000000" fill="#FFFFFF" fill-opacity="0.500000"/>
		<rect  x="14.500000" y="2.500000" rx="3.000000" width="168.000000" height="67.000000" stroke="#CECDCD" stroke-opacity="1.000000" stroke-width="1.000000"/>
		<path id="*****" d="M61.56 32.33Q60.98 32.74 60.59 33.1Q60.79 32.58 60.99 31.91Q61.21 31.22 61.4 30.52Q61.6 29.81 61.74 29.13Q61.87 28.45 61.87 27.94L61.87 26.96L56.81 26.96L56.81 27.94Q56.81 28.45 56.94 29.13Q57.08 29.81 57.27 30.52Q57.46 31.22 57.68 31.91Q57.9 32.58 58.09 33.1Q57.66 32.74 57.09 32.33Q56.53 31.92 55.92 31.51Q55.32 31.11 54.69 30.77Q54.07 30.44 53.61 30.29L52.67 29.97L51.11 34.81L52.04 35.12Q52.55 35.28 53.22 35.35Q53.88 35.43 54.62 35.45Q55.36 35.47 56.06 35.47L57.31 35.47Q56.84 35.78 56.27 36.19Q55.71 36.6 55.14 37.05Q54.58 37.49 54.07 37.97Q53.57 38.44 53.25 38.87L52.64 39.68L56.77 42.61L57.35 41.83Q57.66 41.44 57.95 40.82Q58.24 40.19 58.52 39.51Q58.8 38.83 58.99 38.16Q59.19 37.49 59.34 36.95Q59.49 37.49 59.68 38.16Q59.88 38.83 60.16 39.51Q60.43 40.19 60.72 40.82Q61.01 41.44 61.33 41.83L61.91 42.61L66.05 39.68L65.42 38.87Q65.11 38.44 64.6 37.97Q64.1 37.49 63.53 37.05Q62.97 36.6 62.39 36.19Q61.83 35.78 61.37 35.47L62.61 35.47Q63.32 35.47 64.06 35.45Q64.8 35.43 65.46 35.35Q66.13 35.28 66.63 35.12L67.56 34.81L66.01 29.97L65.07 30.29Q64.6 30.44 63.98 30.77Q63.36 31.11 62.75 31.51Q62.15 31.92 61.56 32.33ZM81.13 32.33Q80.55 32.74 80.16 33.1Q80.36 32.58 80.57 31.91Q80.79 31.22 80.98 30.52Q81.18 29.81 81.32 29.13Q81.45 28.45 81.45 27.94L81.45 26.96L76.38 26.96L76.38 27.94Q76.38 28.45 76.52 29.13Q76.66 29.81 76.85 30.52Q77.04 31.22 77.26 31.91Q77.48 32.58 77.67 33.1Q77.24 32.74 76.67 32.33Q76.11 31.92 75.5 31.51Q74.9 31.11 74.27 30.77Q73.65 30.44 73.18 30.29L72.25 29.97L70.69 34.81L71.62 35.12Q72.13 35.28 72.79 35.35Q73.46 35.43 74.19 35.45Q74.94 35.47 75.64 35.47L76.89 35.47Q76.42 35.78 75.85 36.19Q75.29 36.6 74.72 37.05Q74.16 37.49 73.65 37.97Q73.15 38.44 72.83 38.87L72.21 39.68L76.35 42.61L76.93 41.83Q77.24 41.44 77.53 40.82Q77.82 40.19 78.1 39.51Q78.37 38.83 78.56 38.16Q78.76 37.49 78.92 36.95Q79.07 37.49 79.26 38.16Q79.46 38.83 79.73 39.51Q80.01 40.19 80.3 40.82Q80.59 41.44 80.91 41.83L81.49 42.61L85.63 39.68L85 38.87Q84.69 38.44 84.18 37.97Q83.68 37.49 83.11 37.05Q82.54 36.6 81.97 36.19Q81.41 35.78 80.94 35.47L82.19 35.47Q82.9 35.47 83.64 35.45Q84.38 35.43 85.04 35.35Q85.7 35.28 86.21 35.12L87.14 34.81L85.59 29.97L84.65 30.29Q84.18 30.44 83.55 30.77Q82.93 31.11 82.32 31.51Q81.72 31.92 81.13 32.33ZM100.71 32.33Q100.13 32.74 99.74 33.1Q99.94 32.58 100.15 31.91Q100.37 31.22 100.56 30.52Q100.76 29.81 100.89 29.13Q101.03 28.45 101.03 27.94L101.03 26.96L95.96 26.96L95.96 27.94Q95.96 28.45 96.09 29.13Q96.24 29.81 96.43 30.52Q96.62 31.22 96.84 31.91Q97.06 32.58 97.25 33.1Q96.82 32.74 96.25 32.33Q95.69 31.92 95.08 31.51Q94.48 31.11 93.85 30.77Q93.23 30.44 92.76 30.29L91.83 29.97L90.27 34.81L91.2 35.12Q91.71 35.28 92.37 35.35Q93.04 35.43 93.77 35.45Q94.51 35.47 95.22 35.47L96.47 35.47Q96 35.78 95.43 36.19Q94.87 36.6 94.3 37.05Q93.73 37.49 93.23 37.97Q92.72 38.44 92.41 38.87L91.79 39.68L95.92 42.61L96.5 41.83Q96.82 41.44 97.1 40.82Q97.4 40.19 97.68 39.51Q97.95 38.83 98.14 38.16Q98.34 37.49 98.49 36.95Q98.65 37.49 98.84 38.16Q99.04 38.83 99.31 39.51Q99.59 40.19 99.87 40.82Q100.17 41.44 100.48 41.83L101.07 42.61L105.21 39.68L104.58 38.87Q104.26 38.44 103.76 37.97Q103.26 37.49 102.68 37.05Q102.12 36.6 101.55 36.19Q100.99 35.78 100.52 35.47L101.77 35.47Q102.47 35.47 103.22 35.45Q103.96 35.43 104.62 35.35Q105.28 35.28 105.79 35.12L106.72 34.81L105.17 29.97L104.23 30.29Q103.76 30.44 103.13 30.77Q102.51 31.11 101.9 31.51Q101.3 31.92 100.71 32.33ZM120.29 32.33Q119.71 32.74 119.32 33.1Q119.52 32.58 119.73 31.91Q119.95 31.22 120.14 30.52Q120.34 29.81 120.47 29.13Q120.61 28.45 120.61 27.94L120.61 26.96L115.54 26.96L115.54 27.94Q115.54 28.45 115.67 29.13Q115.82 29.81 116.01 30.52Q116.2 31.22 116.42 31.91Q116.63 32.58 116.83 33.1Q116.4 32.74 115.83 32.33Q115.26 31.92 114.65 31.51Q114.05 31.11 113.43 30.77Q112.81 30.44 112.34 30.29L111.41 29.97L109.85 34.81L110.78 35.12Q111.28 35.28 111.95 35.35Q112.62 35.43 113.35 35.45Q114.09 35.47 114.8 35.47L116.04 35.47Q115.58 35.78 115.01 36.19Q114.44 36.6 113.87 37.05Q113.31 37.49 112.81 37.97Q112.3 38.44 111.99 38.87L111.37 39.68L115.5 42.61L116.08 41.83Q116.4 41.44 116.68 40.82Q116.98 40.19 117.25 39.51Q117.53 38.83 117.72 38.16Q117.92 37.49 118.07 36.95Q118.22 37.49 118.42 38.16Q118.62 38.83 118.89 39.51Q119.17 40.19 119.45 40.82Q119.75 41.44 120.06 41.83L120.64 42.61L124.79 39.68L124.16 38.87Q123.84 38.44 123.34 37.97Q122.83 37.49 122.26 37.05Q121.7 36.6 121.13 36.19Q120.57 35.78 120.1 35.47L121.35 35.47Q122.05 35.47 122.8 35.45Q123.54 35.43 124.19 35.35Q124.86 35.28 125.37 35.12L126.3 34.81L124.75 29.97L123.8 30.29Q123.34 30.44 122.71 30.77Q122.09 31.11 121.48 31.51Q120.88 31.92 120.29 32.33ZM139.87 32.33Q139.29 32.74 138.9 33.1Q139.1 32.58 139.31 31.91Q139.53 31.22 139.72 30.52Q139.92 29.81 140.05 29.13Q140.18 28.45 140.18 27.94L140.18 26.96L135.12 26.96L135.12 27.94Q135.12 28.45 135.25 29.13Q135.39 29.81 135.58 30.52Q135.77 31.22 135.99 31.91Q136.21 32.58 136.4 33.1Q135.97 32.74 135.4 32.33Q134.84 31.92 134.23 31.51Q133.63 31.11 133 30.77Q132.39 30.44 131.92 30.29L130.99 29.97L129.42 34.81L130.36 35.12Q130.86 35.28 131.53 35.35Q132.19 35.43 132.93 35.45Q133.67 35.47 134.38 35.47L135.62 35.47Q135.16 35.78 134.58 36.19Q134.02 36.6 133.45 37.05Q132.89 37.49 132.39 37.97Q131.88 38.44 131.57 38.87L130.95 39.68L135.08 42.61L135.66 41.83Q135.97 41.44 136.26 40.82Q136.56 40.19 136.83 39.51Q137.11 38.83 137.3 38.16Q137.5 37.49 137.65 36.95Q137.8 37.49 137.99 38.16Q138.19 38.83 138.47 39.51Q138.75 40.19 139.03 40.82Q139.33 41.44 139.64 41.83L140.22 42.61L144.36 39.68L143.73 38.87Q143.42 38.44 142.92 37.97Q142.41 37.49 141.84 37.05Q141.28 36.6 140.71 36.19Q140.14 35.78 139.68 35.47L140.92 35.47Q141.63 35.47 142.37 35.45Q143.12 35.43 143.77 35.35Q144.44 35.28 144.94 35.12L145.88 34.81L144.33 29.97L143.38 30.29Q142.92 30.44 142.29 30.77Q141.67 31.11 141.06 31.51Q140.46 31.92 139.87 32.33Z" fill="#3C3C3C" fill-opacity="1.000000" fill-rule="evenodd"/>
		<path xmlns="http://www.w3.org/2000/svg" id="path" d="M61.38 10.18L53.77 13.87C67.33 19.7 79.97 26.41 91.05 33.13C74.05 43.02 60.73 52.75 53.72 56.66L68.2 63.67C73.34 57.54 84.54 48.21 99.51 38.46C114.5 48.27 125.72 57.63 130.89 63.81C130.89 63.81 145.01 55.14 146.27 56.48C140.82 52.94 127.58 42.65 109.73 32.11C119.96 26.04 131.43 20.04 143.68 14.77L140.34 11.17C126.45 15.16 113.25 21.08 101.37 27.39C89.38 20.84 75.82 14.57 61.38 10.18Z" fill="#F54F31" fill-opacity="0.400000" fill-rule="nonzero"/>
	</g>
</svg>
