<svg xmlns="http://www.w3.org/2000/svg" xmlns:xlink="http://www.w3.org/1999/xlink" width="200.000000" height="100.000000" viewBox="0 0 200 100" fill="none">
	<defs>
		<clipPath id="clip2_1">
			<rect id="No私钥" width="200.000000" height="100.000000" fill="white" fill-opacity="0"/>
		</clipPath>
	</defs>
	<rect id="No私钥" width="200.000000" height="100.000000" fill="none" fill-opacity="0"/>
	<g clip-path="url(#clip2_1)">
		<rect x="15.000000" y="3.000000" rx="3.000000" width="167.000000" height="66.000000" fill="#FFFFFF" fill-opacity="0.500000"/>
		<rect x="14.500000" y="2.500000" rx="3.000000" width="168.000000" height="67.000000" stroke="#CECDCD" stroke-opacity="1.000000" stroke-width="1.000000"/>
		<path id="path" d="M145.86 30.79C143.89 17.47 131.7 7.79 118.69 9.21C106.77 10.47 98.23 20.58 98.38 32.45L50.9 37.45C49.14 37.64 47.89 39.31 48.14 41.11C48.28 42.04 48.75 42.8 49.44 43.35C50.13 43.9 50.96 44.17 51.87 44.07L59.21 43.3L61.03 55.52C61.17 56.46 61.64 57.22 62.32 57.76C63.02 58.31 63.85 58.58 64.76 58.49C66.51 58.3 67.77 56.63 67.51 54.83L65.7 42.6L73.53 41.77L74.8 50.33C74.94 51.26 75.42 52.02 76.1 52.57C76.79 53.12 77.62 53.39 78.53 53.29C80.29 53.11 81.55 51.44 81.29 49.64L80.02 41.08L99.34 39.04C100.84 44.29 103.99 48.82 108.05 52.04C112.97 55.94 119.25 58.02 125.78 57.37C138.86 56 147.83 44.1 145.86 30.79ZM124.83 50.77C115.37 51.76 106.52 44.73 105.12 35.12C103.73 25.5 110.21 16.81 119.67 15.81C124.39 15.32 128.97 16.84 132.53 19.68C136.11 22.51 138.7 26.66 139.41 31.49C140.8 41.12 134.28 49.78 124.83 50.77Z" fill="#3C3C3C" fill-opacity="1.000000" fill-rule="nonzero"/>
		<path id="path" d="M120.53 23.14C115.13 23.83 111.3 28.91 112 34.45C112.36 37.23 113.78 39.59 115.79 41.18C117.8 42.78 120.4 43.6 123.09 43.26C128.48 42.57 132.31 37.49 131.61 31.95C130.87 26.38 125.93 22.47 120.53 23.14ZM122.37 37.57C120.03 37.87 117.86 36.15 117.54 33.74C117.24 31.34 118.9 29.13 121.25 28.82C122.47 28.66 123.55 29.01 124.43 29.72C125.32 30.42 125.91 31.42 126.08 32.65C126.39 35.05 124.71 37.27 122.37 37.57Z" fill="#3C3C3C" fill-opacity="1.000000" fill-rule="nonzero"/>
		<path xmlns="http://www.w3.org/2000/svg" id="path" d="M61.38 10.18L53.77 13.87C67.33 19.7 79.97 26.41 91.05 33.13C74.05 43.02 60.73 52.75 53.72 56.66L68.2 63.67C73.34 57.54 84.54 48.21 99.51 38.46C114.5 48.27 125.72 57.63 130.89 63.81C130.89 63.81 145.01 55.14 146.27 56.48C140.82 52.94 127.58 42.65 109.73 32.11C119.96 26.04 131.43 20.04 143.68 14.77L140.34 11.17C126.45 15.16 113.25 21.08 101.37 27.39C89.38 20.84 75.82 14.57 61.38 10.18Z" fill="#F54F31" fill-opacity="0.400000" fill-rule="nonzero"/>
	</g>
</svg>