<svg width="200.000000" height="100.000000" viewBox="0 0 200 100" fill="none" xmlns="http://www.w3.org/2000/svg" xmlns:xlink="http://www.w3.org/1999/xlink">
	<desc>
			Created with Pixso.
	</desc>
	<defs>
		<clipPath id="clip2_1">
			<rect id="No私钥" width="200.000000" height="100.000000" fill="white" fill-opacity="0"/>
		</clipPath>
	</defs>
	<rect id="No私钥" width="200.000000" height="100.000000" fill="#FFFFFF" fill-opacity="0"/>
	<g clip-path="url(#clip2_1)">
		<rect id="矩形 1" x="15.000000" y="3.000000" rx="3.000000" width="167.000000" height="66.000000" fill="#FFFFFF" fill-opacity="0.500000"/>
		<rect id="矩形 1" x="14.500000" y="2.500000" rx="3.000000" width="168.000000" height="67.000000" stroke="#CECDCD" stroke-opacity="1.000000" stroke-width="1.000000"/>
		<path id="path" d="M144.87 17.56C133 9.11 112.42 6.87 98.98 12.58C86.63 17.78 84.47 27.85 93.26 35.97L44.07 56.69C42.25 57.46 42.06 59.06 43.66 60.21C44.49 60.8 45.56 61.15 46.72 61.28C47.89 61.41 49.01 61.29 49.95 60.89L57.55 57.69L68.45 65.45C69.28 66.04 70.36 66.4 71.51 66.52C72.69 66.65 73.8 66.54 74.75 66.14C76.57 65.37 76.76 63.76 75.16 62.62L64.26 54.85L72.38 51.43L80.01 56.87C80.84 57.46 81.91 57.81 83.07 57.94C84.24 58.06 85.36 57.95 86.3 57.55C88.12 56.78 88.31 55.18 86.72 54.03L79.09 48.6L99.11 40.16C104.58 43.23 111.38 45.21 118.23 45.95C126.53 46.85 135.03 46 141.82 43.17C155.38 37.48 156.72 26.01 144.87 17.56ZM135.97 38.97C126.18 43.1 111.22 41.48 102.69 35.36C94.16 29.25 95.07 20.9 104.87 16.77C109.76 14.71 115.95 14.1 121.98 14.75C128.01 15.41 133.91 17.33 138.2 20.39C146.74 26.52 145.76 34.86 135.97 38.97Z" fill="#3C3C3C" fill-opacity="1.000000" fill-rule="nonzero"/>
		<path id="path" d="M111.6 21.58C106.05 23.92 105.49 28.66 110.36 32.14C112.8 33.88 116.14 34.97 119.57 35.34C123 35.71 126.52 35.36 129.29 34.19C134.84 31.85 135.39 27.11 130.52 23.63C125.59 20.16 117.16 19.24 111.6 21.58ZM124.29 30.62C121.89 31.64 118.18 31.24 116.05 29.73C113.94 28.22 114.18 26.16 116.59 25.14C117.84 24.61 119.32 24.47 120.82 24.63C122.33 24.8 123.74 25.26 124.83 26.03C126.95 27.54 126.7 29.61 124.29 30.62Z" fill="#3C3C3C" fill-opacity="1.000000" fill-rule="nonzero"/>
		<line id="直线 1" x1="15.000000" y1="3.000000" x2="182.000000" y2="68.999992" stroke="#F54F31" stroke-opacity="0.800000" stroke-width="2.000000"/>
	</g>
</svg>
