<svg width="420.000000" height="420.000000" viewBox="0 0 420 420" fill="none" xmlns="http://www.w3.org/2000/svg" xmlns:xlink="http://www.w3.org/1999/xlink">
	<desc>
			Created with Pixso.
	</desc>
	<defs>
		<clipPath id="clip2_1">
			<rect id="安全圈" width="420.000000" height="420.000000" fill="white" fill-opacity="0"/>
		</clipPath>
	</defs>
	<rect id="安全圈" width="420.000000" height="420.000000" fill="#FFFFFF" fill-opacity="0"/>
	<g clip-path="url(#clip2_1)">
		<path id="path" d="M275 165.25L275 251.37C275 256.54 273.91 261.68 271.75 266.78C269.57 271.9 266.74 276.85 263.23 281.65C259.72 286.45 255.71 291 251.21 295.28C246.69 299.57 242.13 303.4 237.49 306.75C232.85 310.1 228.35 312.9 223.97 315.12C219.6 317.34 215.76 318.86 212.47 319.69L210.91 320L209.48 319.69C206.1 318.86 202.18 317.34 197.71 315.12C193.24 312.9 188.61 310.1 183.8 306.75C178.99 303.4 174.27 299.57 169.63 295.28C165 291 160.86 286.45 157.22 281.65C153.58 276.85 150.63 271.9 148.38 266.78C146.12 261.68 145 256.54 145 251.37L145 165.25L150.33 164.32L210.13 151L271.1 164.32L275 165.25ZM210.15 163.46L209.42 163.3L158.1 173.69L158.1 228.03L210.15 228.03L210.15 163.46ZM261.89 228.03L210.15 228.03L210.15 305.37C213.47 304.46 217.09 303.07 221.01 301.2C224.91 299.33 228.77 297.11 232.58 294.56C236.4 292 240.06 289.16 243.59 286.04C247.12 282.92 250.24 279.56 252.96 275.98C255.68 272.41 257.84 268.69 259.46 264.83C261.09 260.97 261.89 257.05 261.89 253.07L261.89 228.03Z" fill="#23870A" fill-opacity="1.000000" fill-rule="nonzero"/>
		<path id="path" d="M360.59 127.15C351.03 127.15 342.27 129.96 334.7 134.77L259 79.4C261.79 73.39 263.38 66.56 263.38 59.34C263.38 32.06 241.47 10 214.38 10C187.29 10 164.98 32.06 164.98 59.34C164.98 66.56 166.57 73.39 169.36 79.4L89.68 137.58C81.31 131.16 70.95 127.15 59.4 127.15C32.31 127.15 10 149.21 10 176.49C10 203.78 31.91 225.84 59 225.84L89.28 318.92C75.33 327.75 66.17 342.99 66.17 360.65C66.17 387.93 88.08 410 115.17 410C137.49 410 155.81 395.15 162.19 375.09L260.19 375.09C266.57 395.15 284.9 410 307.21 410C334.3 410 356.61 387.93 356.61 360.65C356.61 345 349.44 330.96 337.88 321.73L369.36 224.64C392.47 220.63 410 200.17 410 176.09C410 149.61 387.68 127.55 360.59 127.15ZM307.21 312.1C282.11 312.1 261.39 330.96 258.2 355.43L164.58 355.43C161.39 330.96 141.07 312.1 115.97 312.1C113.58 312.1 111.59 312.5 109.2 312.5L80.11 221.83C96.85 214.21 108.8 196.96 108.8 176.9C108.8 168.47 106.81 160.45 103.22 153.63L181.31 96.25C190.08 104.28 201.63 109.09 213.98 109.09C226.73 109.09 238.28 104.28 247.05 96.25L319.56 149.21C314.38 157.24 311.19 166.46 311.19 176.5C311.19 199.36 326.73 218.62 347.45 224.24L318.76 312.9C315.57 312.5 311.59 312.1 307.21 312.1Z" fill="#2B2C2D" fill-opacity="1.000000" fill-rule="nonzero"/>
	</g>
</svg>
