<svg width="400.000000" height="400.000000" viewBox="0 0 400 400" fill="none" xmlns="http://www.w3.org/2000/svg" xmlns:xlink="http://www.w3.org/1999/xlink">
	<defs>
		<filter id="filter_8_15_dd" x="15.219162" y="158.623535" width="375.611084" height="113.925537" filterUnits="userSpaceOnUse" color-interpolation-filters="sRGB">
			<feFlood flood-opacity="0" result="BackgroundImageFix"/>
			<feColorMatrix in="SourceAlpha" type="matrix" values="0 0 0 0 0 0 0 0 0 0 0 0 0 0 0 0 0 0 127 0" result="hardAlpha"/>
			<feOffset dx="4" dy="4"/>
			<feGaussianBlur stdDeviation="1.66667"/>
			<feComposite in2="hardAlpha" operator="out" k2="-1" k3="1"/>
			<feColorMatrix type="matrix" values="0 0 0 0 0 0 0 0 0 0 0 0 0 0 0 0 0 0 0.5 0"/>
			<feBlend mode="normal" in2="BackgroundImageFix" result="effect_dropShadow_1"/>
			<feBlend mode="normal" in="SourceGraphic" in2="effect_dropShadow_1" result="shape"/>
		</filter>
	</defs>
	<g clip-path="url(#clip8_13)">
		<path id="path" d="M184.41 25.66L201.95 39.92C196.56 45.11 193 52.18 192.46 60.07C191.95 67.14 191.4 74.29 190.78 80.7C190.58 80.78 190.35 80.82 190.19 80.89C183.16 82.96 171.36 86.4 163.9 97.65L163.78 97.85L163.67 98.04C157.26 108.04 156.79 120.19 162.46 130.54C168.75 142.03 181.95 149.76 197.89 151.64C197.5 152.34 197.1 153.08 196.71 153.78C196.56 154.1 196.36 154.41 196.21 154.72C193.98 154.06 191.56 153.67 188.86 153.67C187.3 153.67 185.78 153.82 184.25 154.1C182.69 153.75 180.66 153.24 179.1 152.89C173.08 151.4 166.83 149.84 160.58 149.84C159.57 149.84 158.55 149.88 157.57 149.96C148 150.74 139.76 155.89 134.72 164.21C127.85 165 121.48 168.67 117.34 174.29C115.23 177.18 110.78 184.8 113.2 195.03C113.32 196.79 113.51 198.75 113.75 201.09C114.18 205.58 114.72 211.36 115.15 218.28C111.09 216.32 106.56 214.84 102.03 214.76C101.68 214.76 101.4 214.72 101.21 214.72C100.58 213.67 99.06 210.54 97.96 203.16C96.67 194.41 96.6 183.67 96.6 173.39C96.6 166.09 94.33 152.42 79.25 143.2C72.65 139.17 65.07 137.03 57.26 137.03C49.68 137.03 42.3 139.02 35.7 142.77L34.72 142.38C35.93 138.86 37.3 135.39 38.75 131.95C47.57 111.13 60.19 92.38 76.25 76.32C92.3 60.27 111.05 47.61 131.87 38.82C148.67 31.64 166.28 27.26 184.41 25.66ZM365.07 159.68L371.21 163.51C373.75 175.43 375 187.61 375 200C375 208.63 374.37 217.14 373.16 225.58L351.87 244.68C351.25 243.71 350.58 242.73 349.92 241.79C344.02 233.63 338.16 226.79 332.5 221.52C329.8 219.02 327.85 216.6 326.64 214.29C325.39 211.91 325.27 210.27 325.35 209.1C325.5 206.17 327.03 202.46 329.8 198.32C334.41 191.48 341.99 183.98 352.34 176.01L367.03 164.76L365.07 159.68ZM175.74 267.65C177.38 268.71 179.18 269.72 181.09 270.62C184.18 272.07 189.57 277.14 193.47 280.82C199.18 286.17 205.35 291.95 212.69 295.74C216.44 304.49 222.18 309.18 227.73 311.6C222.57 318.39 219.02 325.89 216.17 334.1L216.21 331.09L205.5 323.43C205.43 323.39 197.69 317.81 189.41 310.27C177.81 299.72 174.25 293.75 173.32 291.87C173.43 286.01 174.14 281.32 174.72 277.5C175.23 274.68 175.74 271.32 175.74 267.65ZM200 0C89.53 0 0 89.53 0 200C0 310.46 89.53 400 200 400C310.46 400 400 310.46 400 200C400 89.53 310.46 0 200 0ZM205.54 127.03C190.62 127.03 179.84 119.1 184.72 111.48C190.93 102.14 213.16 107.34 215.15 88.59C216.05 79.92 216.83 70.15 217.42 61.83C217.61 58.82 220.03 56.48 223.04 56.28C237.57 55.23 239.06 37.92 225.46 26.87C240.11 28.98 254.41 32.96 268.12 38.78C288.94 47.61 307.69 60.23 323.75 76.28C338.35 90.89 350.07 107.65 358.75 126.21C356.52 124.8 354.21 124.18 351.95 124.18C340.93 124.18 330.78 139.17 337.1 156.21C285.15 196.05 298.47 223.94 315.43 239.8C320.43 244.49 325.35 250.5 329.64 256.48C333.78 262.18 336.36 268.78 337.85 275.7C338.39 278.2 340.35 279.45 343.2 279.45C347.5 279.45 353.75 276.6 360.03 270.97C351.28 290.7 339.1 308.43 323.75 323.78C307.65 339.88 288.94 352.5 268.12 361.28C258.59 365.31 248.82 368.47 238.82 370.7C238.24 370.58 237.57 370.54 236.87 370.54C235.5 370.54 233.94 370.74 232.18 371.21C238.24 345.62 241.13 331.21 253.63 320.35C270.82 305.43 257.42 288.94 244.25 288.94C243.51 288.94 242.73 288.98 241.99 289.1C241.4 289.18 240.89 289.21 240.43 289.21C231.75 289.21 237.5 275.58 228.32 274.8C218.63 273.98 205.93 254.72 191.83 248.04C184.45 244.53 177.18 235.07 165.7 234.57L165.03 234.57C157.77 234.57 148.47 238.9 143.78 238.9C141.91 238.9 140.74 238.2 140.74 236.28C140.74 213.98 138.43 198.12 138.08 191.83C137.92 189.68 137.3 189.06 137.65 189.06C138.12 189.06 140.46 190.31 148.51 190.5L148.67 190.5C155.93 190.5 152.46 175.46 159.64 174.88C159.96 174.84 160.27 174.84 160.58 174.84C166.99 174.84 179.14 179.45 185.5 179.45C186.83 179.45 187.89 179.25 188.59 178.78C188.67 178.75 188.75 178.71 188.86 178.71C192.3 178.71 205.82 212.42 213.39 212.42C216.52 212.42 218.63 206.68 218.63 190.54C218.63 183.86 215.11 172.22 218.63 165.82C232.34 140.74 245.15 120.23 244.06 117.34C243.71 116.44 239.64 115.62 234.29 115.62C229.72 115.62 224.25 116.21 219.33 117.81C215.66 119.02 220.43 124.72 215.35 125.93C211.99 126.68 208.67 127.03 205.54 127.03ZM36.32 168.08C40.11 168.08 43.9 167.14 46.91 165.11C50.03 163.04 53.67 161.95 57.26 161.95C60.35 161.95 63.43 162.77 66.17 164.45C69.33 166.4 71.56 168.98 71.56 173.35C71.56 205.23 72.65 239.25 101.6 239.76C102.46 239.76 117.69 245.58 124.96 264.49C125.82 266.68 127.5 267.38 129.72 267.38C134.21 267.38 141.05 264.49 148.32 264.49C153.75 264.49 148.32 273.71 148.32 293.59C148.35 313.28 191.01 343.78 191.01 343.78C190.78 356.28 191.36 366.64 192.3 374.8C171.36 373.9 151.09 369.33 131.87 361.21C111.05 352.38 92.3 339.76 76.25 323.71C60.15 307.61 47.53 288.9 38.75 268.08C29.6 246.56 25 223.63 25 200C25 188.67 26.05 177.5 28.16 166.6C30.74 167.57 33.55 168.08 36.32 168.08Z" fill="#000000" fill-opacity="0.400000" fill-rule="nonzero"/>
		<path id="path" d="M201.95 39.92C196.56 45.11 193 52.18 192.46 60.07C191.95 67.14 191.4 74.29 190.78 80.7C190.58 80.78 190.35 80.82 190.19 80.89C183.16 82.96 171.36 86.4 163.9 97.65L163.78 97.85L163.67 98.04C157.26 108.04 156.79 120.19 162.46 130.54C168.75 142.03 181.95 149.76 197.89 151.64C197.5 152.34 197.1 153.08 196.71 153.78C196.56 154.1 196.36 154.41 196.21 154.72C193.98 154.06 191.56 153.67 188.86 153.67C187.3 153.67 185.78 153.82 184.25 154.1C182.69 153.75 180.66 153.24 179.1 152.89C173.08 151.4 166.83 149.84 160.58 149.84C159.57 149.84 158.55 149.88 157.57 149.96C148 150.74 139.76 155.89 134.72 164.21C127.85 165 121.48 168.67 117.34 174.29C115.23 177.18 110.78 184.8 113.2 195.03C113.32 196.79 113.51 198.75 113.75 201.09C114.18 205.58 114.72 211.36 115.15 218.28C111.09 216.32 106.56 214.84 102.03 214.76C101.68 214.76 101.4 214.72 101.21 214.72C100.58 213.67 99.06 210.54 97.96 203.16C96.67 194.41 96.6 183.67 96.6 173.39C96.6 166.09 94.33 152.42 79.25 143.2C72.65 139.17 65.07 137.03 57.26 137.03C49.68 137.03 42.3 139.02 35.7 142.77L34.72 142.38C35.93 138.86 37.3 135.39 38.75 131.95C47.57 111.13 60.19 92.38 76.25 76.32C92.3 60.27 111.05 47.61 131.87 38.82C148.67 31.64 166.28 27.26 184.41 25.66L201.95 39.92ZM371.21 163.51C373.75 175.43 375 187.61 375 200C375 208.63 374.37 217.14 373.16 225.58L351.87 244.68C351.25 243.71 350.58 242.73 349.92 241.79C344.02 233.63 338.16 226.79 332.5 221.52C329.8 219.02 327.85 216.6 326.64 214.29C325.39 211.91 325.27 210.27 325.35 209.1C325.5 206.17 327.03 202.46 329.8 198.32C334.41 191.48 341.99 183.98 352.34 176.01L367.03 164.76L365.07 159.68L371.21 163.51ZM181.09 270.62C184.18 272.07 189.57 277.14 193.47 280.82C199.18 286.17 205.35 291.95 212.69 295.74C216.44 304.49 222.18 309.18 227.73 311.6C222.57 318.39 219.02 325.89 216.17 334.1L216.21 331.09L205.5 323.43C205.43 323.39 197.69 317.81 189.41 310.27C177.81 299.72 174.25 293.75 173.32 291.87C173.43 286.01 174.14 281.32 174.72 277.5C175.23 274.68 175.74 271.32 175.74 267.65C177.38 268.71 179.18 269.72 181.09 270.62ZM0 200C0 310.46 89.53 400 200 400C310.46 400 400 310.46 400 200C400 89.53 310.46 0 200 0C89.53 0 0 89.53 0 200ZM184.72 111.48C190.93 102.14 213.16 107.34 215.15 88.59C216.05 79.92 216.83 70.15 217.42 61.83C217.61 58.82 220.03 56.48 223.04 56.28C237.57 55.23 239.06 37.92 225.46 26.87C240.11 28.98 254.41 32.96 268.12 38.78C288.94 47.61 307.69 60.23 323.75 76.28C338.35 90.89 350.07 107.65 358.75 126.21C356.52 124.8 354.21 124.18 351.95 124.18C340.93 124.18 330.78 139.17 337.1 156.21C285.15 196.05 298.47 223.94 315.43 239.8C320.43 244.49 325.35 250.5 329.64 256.48C333.78 262.18 336.36 268.78 337.85 275.7C338.39 278.2 340.35 279.45 343.2 279.45C347.5 279.45 353.75 276.6 360.03 270.97C351.28 290.7 339.1 308.43 323.75 323.78C307.65 339.88 288.94 352.5 268.12 361.28C258.59 365.31 248.82 368.47 238.82 370.7C238.24 370.58 237.57 370.54 236.87 370.54C235.5 370.54 233.94 370.74 232.18 371.21C238.24 345.62 241.13 331.21 253.63 320.35C270.82 305.43 257.42 288.94 244.25 288.94C243.51 288.94 242.73 288.98 241.99 289.1C241.4 289.18 240.89 289.21 240.43 289.21C231.75 289.21 237.5 275.58 228.32 274.8C218.63 273.98 205.93 254.72 191.83 248.04C184.45 244.53 177.18 235.07 165.7 234.57L165.03 234.57C157.77 234.57 148.47 238.9 143.78 238.9C141.91 238.9 140.74 238.2 140.74 236.28C140.74 213.98 138.43 198.12 138.08 191.83C137.92 189.68 137.3 189.06 137.65 189.06C138.12 189.06 140.46 190.31 148.51 190.5L148.67 190.5C155.93 190.5 152.46 175.46 159.64 174.88C159.96 174.84 160.27 174.84 160.58 174.84C166.99 174.84 179.14 179.45 185.5 179.45C186.83 179.45 187.89 179.25 188.59 178.78C188.67 178.75 188.75 178.71 188.86 178.71C192.3 178.71 205.82 212.42 213.39 212.42C216.52 212.42 218.63 206.68 218.63 190.54C218.63 183.86 215.11 172.22 218.63 165.82C232.34 140.74 245.15 120.23 244.06 117.34C243.71 116.44 239.64 115.62 234.29 115.62C229.72 115.62 224.25 116.21 219.33 117.81C215.66 119.02 220.43 124.72 215.35 125.93C211.99 126.68 208.67 127.03 205.54 127.03C190.62 127.03 179.84 119.1 184.72 111.48ZM46.91 165.11C50.03 163.04 53.67 161.95 57.26 161.95C60.35 161.95 63.43 162.77 66.17 164.45C69.33 166.4 71.56 168.98 71.56 173.35C71.56 205.23 72.65 239.25 101.6 239.76C102.46 239.76 117.69 245.58 124.96 264.49C125.82 266.68 127.5 267.38 129.72 267.38C134.21 267.38 141.05 264.49 148.32 264.49C153.75 264.49 148.32 273.71 148.32 293.59C148.35 313.28 191.01 343.78 191.01 343.78C190.78 356.28 191.36 366.64 192.3 374.8C171.36 373.9 151.09 369.33 131.87 361.21C111.05 352.38 92.3 339.76 76.25 323.71C60.15 307.61 47.53 288.9 38.75 268.08C29.6 246.56 25 223.63 25 200C25 188.67 26.05 177.5 28.16 166.6C30.74 167.57 33.55 168.08 36.32 168.08C40.11 168.08 43.9 167.14 46.91 165.11Z" stroke="#3C3C3C" stroke-opacity="0.800000" stroke-width="1.000000"/>
		<g filter="url(#filter_8_15_dd)">
			<path id="Web3" d="M231.08 159.62L231.08 262L252.39 262L252.39 256.96Q254.84 259 257.86 260.51Q258.93 261.05 260.05 261.49Q264.93 263.41 270.56 263.41Q278.47 263.41 284.92 260.35Q286.42 259.64 287.84 258.76Q290.85 256.91 293.34 254.52Q297.1 250.91 299.69 246.09Q299.78 245.92 299.86 245.75Q303.99 237.82 303.99 227.74Q303.99 217.58 299.79 209.63Q299.74 209.53 299.69 209.43Q297.05 204.5 293.2 200.84Q290.76 198.53 287.84 196.73Q286.35 195.8 284.77 195.06Q278.37 192.05 270.56 192.05Q264.17 192.05 258.74 194.34Q258.3 194.53 257.86 194.73Q255.01 196.06 252.66 197.88L252.66 159.62L231.08 159.62ZM16.21 162.44L48.19 262L65.54 262L84.44 199.08L103.34 262L120.69 262L152.71 162.44L130.85 162.44L111.85 224.95L93.19 162.44L75.84 162.44L57.26 224.75L38.21 162.44L16.21 162.44ZM315.84 162.44L315.84 181.2L349.78 181.2L330.91 203.34L330.91 215.59Q332.88 214.9 335.77 214.56Q338.66 214.18 341.34 214.18Q347.13 214.18 351.29 216.04Q355.08 217.7 357.21 220.58Q357.43 220.87 357.63 221.17Q357.72 221.32 357.82 221.47Q359.83 224.68 359.83 229.16Q359.83 233.4 357.99 236.59Q357.82 236.89 357.63 237.18Q356.97 238.2 356.16 239.09Q354.3 241.11 351.64 242.41Q347.85 244.23 342.62 244.23Q339.36 244.23 336.29 243.46Q333.92 242.86 331.67 241.79Q326.54 239.31 323.86 235.35L309.64 249.6Q311.55 251.78 313.74 253.64Q318.33 257.52 324.13 259.96Q332.74 263.54 343.03 263.54Q354.73 263.54 363.41 259.31Q369.71 256.24 373.99 251.38Q375.61 249.55 376.94 247.47Q378.05 245.74 378.91 243.89Q381.83 237.61 381.83 229.98Q381.83 220.96 378.21 214.42Q375.65 209.72 371.82 206.54Q370.29 205.28 368.57 204.27Q367.22 203.46 365.79 202.84Q361.78 201.08 357.14 200.73L379.97 174.73L379.97 162.44L315.84 162.44ZM167.86 258.97Q176.53 263.54 187.65 263.54Q196.26 263.54 203.45 260.58Q207.01 259.12 210.05 256.93Q213.15 254.69 215.71 251.7L203.86 239.86Q201.55 242.48 198.69 244.14Q197.71 244.71 196.67 245.16Q192.61 246.92 187.51 246.92Q182 246.92 177.98 244.61Q176.53 243.76 175.32 242.66Q173.19 240.71 171.78 237.97Q171.06 236.54 170.58 234.91L219.66 234.77Q220.22 232.12 220.42 230.08Q220.66 228.02 220.66 226.19Q220.66 217.03 216.95 209.77Q216.6 209.09 216.22 208.43Q213.94 204.44 210.78 201.34Q207.79 198.41 204 196.28Q203.86 196.2 203.72 196.12Q196.07 191.91 186.1 191.91Q177.42 191.91 170.2 195.15Q168.74 195.8 167.34 196.59Q163.1 198.97 159.75 202.25Q156.55 205.39 154.16 209.36Q153.17 210.99 152.39 212.72Q149.3 219.53 149.3 227.74Q149.3 235.51 152.11 242.08Q153.02 244.22 154.22 246.23Q156.23 249.53 158.84 252.25Q162.69 256.24 167.86 258.97ZM170.59 220.07Q171.02 218.6 171.64 217.31Q173.16 214.19 175.58 212.12Q176.45 211.38 177.43 210.77Q177.72 210.59 178.03 210.42Q181.58 208.43 186.24 208.43Q191.06 208.43 194.36 210.46Q195.22 210.99 195.96 211.64Q198.1 213.5 199.35 216.38Q200.06 218.01 200.49 219.99L170.59 220.07ZM273.96 242.29Q270.79 243.96 266.74 243.96Q262.62 243.96 259.39 242.26Q259.09 242.1 258.79 241.93Q257.51 241.16 256.43 240.18Q254.61 238.51 253.35 236.21Q251.39 232.53 251.39 227.74Q251.39 222.92 253.28 219.28Q254.4 217.14 256.05 215.56Q257.24 214.42 258.72 213.56Q259.15 213.32 259.59 213.1Q262.78 211.53 266.74 211.53Q271 211.53 274.29 213.32Q274.51 213.43 274.73 213.56Q275.95 214.28 276.98 215.2Q278.87 216.89 280.13 219.28Q282.13 222.92 282.13 227.74Q282.13 231.98 280.47 235.41Q280.31 235.75 280.13 236.07Q278.99 238.21 277.33 239.82Q276.16 240.97 274.73 241.86Q274.35 242.09 273.96 242.29Z" fill="#053C89" fill-opacity="1.000000" fill-rule="evenodd"/>
		</g>
	</g>
</svg>
